<?xml version="1.0" encoding="utf-8" standalone="no"?>
<!DOCTYPE svg PUBLIC "-//W3C//DTD SVG 1.1//EN"
  "http://www.w3.org/Graphics/SVG/1.1/DTD/svg11.dtd">
<svg xmlns:xlink="http://www.w3.org/1999/xlink" width="749.566875pt" height="440.121pt" viewBox="0 0 749.566875 440.121" xmlns="http://www.w3.org/2000/svg" version="1.1">
 <metadata>
  <rdf:RDF xmlns:dc="http://purl.org/dc/elements/1.1/" xmlns:cc="http://creativecommons.org/ns#" xmlns:rdf="http://www.w3.org/1999/02/22-rdf-syntax-ns#">
   <cc:Work>
    <dc:type rdf:resource="http://purl.org/dc/dcmitype/StillImage"/>
    <dc:date>2024-06-27T13:07:30.464595</dc:date>
    <dc:format>image/svg+xml</dc:format>
    <dc:creator>
     <cc:Agent>
      <dc:title>Matplotlib v3.8.4, https://matplotlib.org/</dc:title>
     </cc:Agent>
    </dc:creator>
   </cc:Work>
  </rdf:RDF>
 </metadata>
 <defs>
  <style type="text/css">*{stroke-linejoin: round; stroke-linecap: butt}</style>
 </defs>
 <g id="figure_1">
  <g id="patch_1">
   <path d="M 0 440.121 
L 749.566875 440.121 
L 749.566875 -0 
L 0 -0 
z
" style="fill: #ffffff"/>
  </g>
  <g id="axes_1">
   <g id="patch_2">
    <path d="M 59.13 390.951 
L 728.73 390.951 
L 728.73 58.311 
L 59.13 58.311 
z
" style="fill: #ffffff"/>
   </g>
   <g id="patch_3">
    <path d="M 75.87 390.951 
L 142.83 390.951 
L 142.83 120.09259 
L 75.87 120.09259 
z
" clip-path="url(#p414c1bfbbe)" style="fill: #df9c20"/>
   </g>
   <g id="patch_4">
    <path d="M 243.27 390.951 
L 310.23 390.951 
L 310.23 92.907828 
L 243.27 92.907828 
z
" clip-path="url(#p414c1bfbbe)" style="fill: #df9c20"/>
   </g>
   <g id="patch_5">
    <path d="M 410.67 390.951 
L 477.63 390.951 
L 477.63 83.625493 
L 410.67 83.625493 
z
" clip-path="url(#p414c1bfbbe)" style="fill: #df9c20"/>
   </g>
   <g id="patch_6">
    <path d="M 578.07 390.951 
L 645.03 390.951 
L 645.03 74.151 
L 578.07 74.151 
z
" clip-path="url(#p414c1bfbbe)" style="fill: #df9c20"/>
   </g>
   <g id="patch_7">
    <path d="M 142.83 390.951 
L 209.79 390.951 
L 209.79 334.860529 
L 142.83 334.860529 
z
" clip-path="url(#p414c1bfbbe)" style="fill: #20dfdf"/>
   </g>
   <g id="patch_8">
    <path d="M 310.23 390.951 
L 377.19 390.951 
L 377.19 252.50642 
L 310.23 252.50642 
z
" clip-path="url(#p414c1bfbbe)" style="fill: #20dfdf"/>
   </g>
   <g id="patch_9">
    <path d="M 477.63 390.951 
L 544.59 390.951 
L 544.59 236.533521 
L 477.63 236.533521 
z
" clip-path="url(#p414c1bfbbe)" style="fill: #20dfdf"/>
   </g>
   <g id="patch_10">
    <path d="M 645.03 390.951 
L 711.99 390.951 
L 711.99 228.122315 
L 645.03 228.122315 
z
" clip-path="url(#p414c1bfbbe)" style="fill: #20dfdf"/>
   </g>
   <g id="patch_11">
    <path d="M 142.83 390.951 
L 142.83 390.951 
L 142.83 390.951 
L 142.83 390.951 
z
" clip-path="url(#p414c1bfbbe)" style="fill: #df9c20"/>
   </g>
   <g id="patch_12">
    <path d="M 142.83 390.951 
L 142.83 390.951 
L 142.83 390.951 
L 142.83 390.951 
z
" clip-path="url(#p414c1bfbbe)" style="fill: #20dfdf"/>
   </g>
   <g id="matplotlib.axis_1">
    <g id="xtick_1">
     <g id="line2d_1">
      <defs>
       <path id="m21991c465b" d="M 0 0 
L 0 3.5 
" style="stroke: #000000; stroke-width: 0.8"/>
      </defs>
      <g>
       <use xlink:href="#m21991c465b" x="142.83" y="390.951" style="stroke: #000000; stroke-width: 0.8"/>
      </g>
     </g>
     <g id="text_1">
      <!-- 10K rows -->
      <g transform="translate(106.1475 410.1085) scale(0.16 -0.16)">
       <defs>
        <path id="DejaVuSans-31" d="M 794 531 
L 1825 531 
L 1825 4091 
L 703 3866 
L 703 4441 
L 1819 4666 
L 2450 4666 
L 2450 531 
L 3481 531 
L 3481 0 
L 794 0 
L 794 531 
z
" transform="scale(0.015625)"/>
        <path id="DejaVuSans-30" d="M 2034 4250 
Q 1547 4250 1301 3770 
Q 1056 3291 1056 2328 
Q 1056 1369 1301 889 
Q 1547 409 2034 409 
Q 2525 409 2770 889 
Q 3016 1369 3016 2328 
Q 3016 3291 2770 3770 
Q 2525 4250 2034 4250 
z
M 2034 4750 
Q 2819 4750 3233 4129 
Q 3647 3509 3647 2328 
Q 3647 1150 3233 529 
Q 2819 -91 2034 -91 
Q 1250 -91 836 529 
Q 422 1150 422 2328 
Q 422 3509 836 4129 
Q 1250 4750 2034 4750 
z
" transform="scale(0.015625)"/>
        <path id="DejaVuSans-4b" d="M 628 4666 
L 1259 4666 
L 1259 2694 
L 3353 4666 
L 4166 4666 
L 1850 2491 
L 4331 0 
L 3500 0 
L 1259 2247 
L 1259 0 
L 628 0 
L 628 4666 
z
" transform="scale(0.015625)"/>
        <path id="DejaVuSans-20" transform="scale(0.015625)"/>
        <path id="DejaVuSans-72" d="M 2631 2963 
Q 2534 3019 2420 3045 
Q 2306 3072 2169 3072 
Q 1681 3072 1420 2755 
Q 1159 2438 1159 1844 
L 1159 0 
L 581 0 
L 581 3500 
L 1159 3500 
L 1159 2956 
Q 1341 3275 1631 3429 
Q 1922 3584 2338 3584 
Q 2397 3584 2469 3576 
Q 2541 3569 2628 3553 
L 2631 2963 
z
" transform="scale(0.015625)"/>
        <path id="DejaVuSans-6f" d="M 1959 3097 
Q 1497 3097 1228 2736 
Q 959 2375 959 1747 
Q 959 1119 1226 758 
Q 1494 397 1959 397 
Q 2419 397 2687 759 
Q 2956 1122 2956 1747 
Q 2956 2369 2687 2733 
Q 2419 3097 1959 3097 
z
M 1959 3584 
Q 2709 3584 3137 3096 
Q 3566 2609 3566 1747 
Q 3566 888 3137 398 
Q 2709 -91 1959 -91 
Q 1206 -91 779 398 
Q 353 888 353 1747 
Q 353 2609 779 3096 
Q 1206 3584 1959 3584 
z
" transform="scale(0.015625)"/>
        <path id="DejaVuSans-77" d="M 269 3500 
L 844 3500 
L 1563 769 
L 2278 3500 
L 2956 3500 
L 3675 769 
L 4391 3500 
L 4966 3500 
L 4050 0 
L 3372 0 
L 2619 2869 
L 1863 0 
L 1184 0 
L 269 3500 
z
" transform="scale(0.015625)"/>
        <path id="DejaVuSans-73" d="M 2834 3397 
L 2834 2853 
Q 2591 2978 2328 3040 
Q 2066 3103 1784 3103 
Q 1356 3103 1142 2972 
Q 928 2841 928 2578 
Q 928 2378 1081 2264 
Q 1234 2150 1697 2047 
L 1894 2003 
Q 2506 1872 2764 1633 
Q 3022 1394 3022 966 
Q 3022 478 2636 193 
Q 2250 -91 1575 -91 
Q 1294 -91 989 -36 
Q 684 19 347 128 
L 347 722 
Q 666 556 975 473 
Q 1284 391 1588 391 
Q 1994 391 2212 530 
Q 2431 669 2431 922 
Q 2431 1156 2273 1281 
Q 2116 1406 1581 1522 
L 1381 1569 
Q 847 1681 609 1914 
Q 372 2147 372 2553 
Q 372 3047 722 3315 
Q 1072 3584 1716 3584 
Q 2034 3584 2315 3537 
Q 2597 3491 2834 3397 
z
" transform="scale(0.015625)"/>
       </defs>
       <use xlink:href="#DejaVuSans-31"/>
       <use xlink:href="#DejaVuSans-30" x="63.623047"/>
       <use xlink:href="#DejaVuSans-4b" x="127.246094"/>
       <use xlink:href="#DejaVuSans-20" x="192.822266"/>
       <use xlink:href="#DejaVuSans-72" x="224.609375"/>
       <use xlink:href="#DejaVuSans-6f" x="263.472656"/>
       <use xlink:href="#DejaVuSans-77" x="324.654297"/>
       <use xlink:href="#DejaVuSans-73" x="406.441406"/>
      </g>
     </g>
    </g>
    <g id="xtick_2">
     <g id="line2d_2">
      <g>
       <use xlink:href="#m21991c465b" x="310.23" y="390.951" style="stroke: #000000; stroke-width: 0.8"/>
      </g>
     </g>
     <g id="text_2">
      <!-- 100K rows -->
      <g transform="translate(268.4575 410.1085) scale(0.16 -0.16)">
       <use xlink:href="#DejaVuSans-31"/>
       <use xlink:href="#DejaVuSans-30" x="63.623047"/>
       <use xlink:href="#DejaVuSans-30" x="127.246094"/>
       <use xlink:href="#DejaVuSans-4b" x="190.869141"/>
       <use xlink:href="#DejaVuSans-20" x="256.445312"/>
       <use xlink:href="#DejaVuSans-72" x="288.232422"/>
       <use xlink:href="#DejaVuSans-6f" x="327.095703"/>
       <use xlink:href="#DejaVuSans-77" x="388.277344"/>
       <use xlink:href="#DejaVuSans-73" x="470.064453"/>
      </g>
     </g>
    </g>
    <g id="xtick_3">
     <g id="line2d_3">
      <g>
       <use xlink:href="#m21991c465b" x="477.63" y="390.951" style="stroke: #000000; stroke-width: 0.8"/>
      </g>
     </g>
     <g id="text_3">
      <!-- 1M rows -->
      <g transform="translate(444.38125 410.1085) scale(0.16 -0.16)">
       <defs>
        <path id="DejaVuSans-4d" d="M 628 4666 
L 1569 4666 
L 2759 1491 
L 3956 4666 
L 4897 4666 
L 4897 0 
L 4281 0 
L 4281 4097 
L 3078 897 
L 2444 897 
L 1241 4097 
L 1241 0 
L 628 0 
L 628 4666 
z
" transform="scale(0.015625)"/>
       </defs>
       <use xlink:href="#DejaVuSans-31"/>
       <use xlink:href="#DejaVuSans-4d" x="63.623047"/>
       <use xlink:href="#DejaVuSans-20" x="149.902344"/>
       <use xlink:href="#DejaVuSans-72" x="181.689453"/>
       <use xlink:href="#DejaVuSans-6f" x="220.552734"/>
       <use xlink:href="#DejaVuSans-77" x="281.734375"/>
       <use xlink:href="#DejaVuSans-73" x="363.521484"/>
      </g>
     </g>
    </g>
    <g id="xtick_4">
     <g id="line2d_4">
      <g>
       <use xlink:href="#m21991c465b" x="645.03" y="390.951" style="stroke: #000000; stroke-width: 0.8"/>
      </g>
     </g>
     <g id="text_4">
      <!-- 10M rows -->
      <g transform="translate(606.69125 410.1085) scale(0.16 -0.16)">
       <use xlink:href="#DejaVuSans-31"/>
       <use xlink:href="#DejaVuSans-30" x="63.623047"/>
       <use xlink:href="#DejaVuSans-4d" x="127.246094"/>
       <use xlink:href="#DejaVuSans-20" x="213.525391"/>
       <use xlink:href="#DejaVuSans-72" x="245.3125"/>
       <use xlink:href="#DejaVuSans-6f" x="284.175781"/>
       <use xlink:href="#DejaVuSans-77" x="345.357422"/>
       <use xlink:href="#DejaVuSans-73" x="427.144531"/>
      </g>
     </g>
    </g>
    <g id="text_5">
     <!-- Dataset Size -->
     <g transform="translate(343.6375 429.5935) scale(0.16 -0.16)">
      <defs>
       <path id="DejaVuSans-44" d="M 1259 4147 
L 1259 519 
L 2022 519 
Q 2988 519 3436 956 
Q 3884 1394 3884 2338 
Q 3884 3275 3436 3711 
Q 2988 4147 2022 4147 
L 1259 4147 
z
M 628 4666 
L 1925 4666 
Q 3281 4666 3915 4102 
Q 4550 3538 4550 2338 
Q 4550 1131 3912 565 
Q 3275 0 1925 0 
L 628 0 
L 628 4666 
z
" transform="scale(0.015625)"/>
       <path id="DejaVuSans-61" d="M 2194 1759 
Q 1497 1759 1228 1600 
Q 959 1441 959 1056 
Q 959 750 1161 570 
Q 1363 391 1709 391 
Q 2188 391 2477 730 
Q 2766 1069 2766 1631 
L 2766 1759 
L 2194 1759 
z
M 3341 1997 
L 3341 0 
L 2766 0 
L 2766 531 
Q 2569 213 2275 61 
Q 1981 -91 1556 -91 
Q 1019 -91 701 211 
Q 384 513 384 1019 
Q 384 1609 779 1909 
Q 1175 2209 1959 2209 
L 2766 2209 
L 2766 2266 
Q 2766 2663 2505 2880 
Q 2244 3097 1772 3097 
Q 1472 3097 1187 3025 
Q 903 2953 641 2809 
L 641 3341 
Q 956 3463 1253 3523 
Q 1550 3584 1831 3584 
Q 2591 3584 2966 3190 
Q 3341 2797 3341 1997 
z
" transform="scale(0.015625)"/>
       <path id="DejaVuSans-74" d="M 1172 4494 
L 1172 3500 
L 2356 3500 
L 2356 3053 
L 1172 3053 
L 1172 1153 
Q 1172 725 1289 603 
Q 1406 481 1766 481 
L 2356 481 
L 2356 0 
L 1766 0 
Q 1100 0 847 248 
Q 594 497 594 1153 
L 594 3053 
L 172 3053 
L 172 3500 
L 594 3500 
L 594 4494 
L 1172 4494 
z
" transform="scale(0.015625)"/>
       <path id="DejaVuSans-65" d="M 3597 1894 
L 3597 1613 
L 953 1613 
Q 991 1019 1311 708 
Q 1631 397 2203 397 
Q 2534 397 2845 478 
Q 3156 559 3463 722 
L 3463 178 
Q 3153 47 2828 -22 
Q 2503 -91 2169 -91 
Q 1331 -91 842 396 
Q 353 884 353 1716 
Q 353 2575 817 3079 
Q 1281 3584 2069 3584 
Q 2775 3584 3186 3129 
Q 3597 2675 3597 1894 
z
M 3022 2063 
Q 3016 2534 2758 2815 
Q 2500 3097 2075 3097 
Q 1594 3097 1305 2825 
Q 1016 2553 972 2059 
L 3022 2063 
z
" transform="scale(0.015625)"/>
       <path id="DejaVuSans-53" d="M 3425 4513 
L 3425 3897 
Q 3066 4069 2747 4153 
Q 2428 4238 2131 4238 
Q 1616 4238 1336 4038 
Q 1056 3838 1056 3469 
Q 1056 3159 1242 3001 
Q 1428 2844 1947 2747 
L 2328 2669 
Q 3034 2534 3370 2195 
Q 3706 1856 3706 1288 
Q 3706 609 3251 259 
Q 2797 -91 1919 -91 
Q 1588 -91 1214 -16 
Q 841 59 441 206 
L 441 856 
Q 825 641 1194 531 
Q 1563 422 1919 422 
Q 2459 422 2753 634 
Q 3047 847 3047 1241 
Q 3047 1584 2836 1778 
Q 2625 1972 2144 2069 
L 1759 2144 
Q 1053 2284 737 2584 
Q 422 2884 422 3419 
Q 422 4038 858 4394 
Q 1294 4750 2059 4750 
Q 2388 4750 2728 4690 
Q 3069 4631 3425 4513 
z
" transform="scale(0.015625)"/>
       <path id="DejaVuSans-69" d="M 603 3500 
L 1178 3500 
L 1178 0 
L 603 0 
L 603 3500 
z
M 603 4863 
L 1178 4863 
L 1178 4134 
L 603 4134 
L 603 4863 
z
" transform="scale(0.015625)"/>
       <path id="DejaVuSans-7a" d="M 353 3500 
L 3084 3500 
L 3084 2975 
L 922 459 
L 3084 459 
L 3084 0 
L 275 0 
L 275 525 
L 2438 3041 
L 353 3041 
L 353 3500 
z
" transform="scale(0.015625)"/>
      </defs>
      <use xlink:href="#DejaVuSans-44"/>
      <use xlink:href="#DejaVuSans-61" x="77.001953"/>
      <use xlink:href="#DejaVuSans-74" x="138.28125"/>
      <use xlink:href="#DejaVuSans-61" x="177.490234"/>
      <use xlink:href="#DejaVuSans-73" x="238.769531"/>
      <use xlink:href="#DejaVuSans-65" x="290.869141"/>
      <use xlink:href="#DejaVuSans-74" x="352.392578"/>
      <use xlink:href="#DejaVuSans-20" x="391.601562"/>
      <use xlink:href="#DejaVuSans-53" x="423.388672"/>
      <use xlink:href="#DejaVuSans-69" x="486.865234"/>
      <use xlink:href="#DejaVuSans-7a" x="514.648438"/>
      <use xlink:href="#DejaVuSans-65" x="567.138672"/>
     </g>
    </g>
   </g>
   <g id="matplotlib.axis_2">
    <g id="ytick_1">
     <g id="line2d_5">
      <defs>
       <path id="m0feb7e770a" d="M 0 0 
L -3.5 0 
" style="stroke: #000000; stroke-width: 0.8"/>
      </defs>
      <g>
       <use xlink:href="#m0feb7e770a" x="59.13" y="390.951" style="stroke: #000000; stroke-width: 0.8"/>
      </g>
     </g>
     <g id="text_6">
      <!-- 0.0 -->
      <g transform="translate(26.685 397.02975) scale(0.16 -0.16)">
       <defs>
        <path id="DejaVuSans-2e" d="M 684 794 
L 1344 794 
L 1344 0 
L 684 0 
L 684 794 
z
" transform="scale(0.015625)"/>
       </defs>
       <use xlink:href="#DejaVuSans-30"/>
       <use xlink:href="#DejaVuSans-2e" x="63.623047"/>
       <use xlink:href="#DejaVuSans-30" x="95.410156"/>
      </g>
     </g>
    </g>
    <g id="ytick_2">
     <g id="line2d_6">
      <g>
       <use xlink:href="#m0feb7e770a" x="59.13" y="351.33899" style="stroke: #000000; stroke-width: 0.8"/>
      </g>
     </g>
     <g id="text_7">
      <!-- 0.5 -->
      <g transform="translate(26.685 357.41774) scale(0.16 -0.16)">
       <defs>
        <path id="DejaVuSans-35" d="M 691 4666 
L 3169 4666 
L 3169 4134 
L 1269 4134 
L 1269 2991 
Q 1406 3038 1543 3061 
Q 1681 3084 1819 3084 
Q 2600 3084 3056 2656 
Q 3513 2228 3513 1497 
Q 3513 744 3044 326 
Q 2575 -91 1722 -91 
Q 1428 -91 1123 -41 
Q 819 9 494 109 
L 494 744 
Q 775 591 1075 516 
Q 1375 441 1709 441 
Q 2250 441 2565 725 
Q 2881 1009 2881 1497 
Q 2881 1984 2565 2268 
Q 2250 2553 1709 2553 
Q 1456 2553 1204 2497 
Q 953 2441 691 2322 
L 691 4666 
z
" transform="scale(0.015625)"/>
       </defs>
       <use xlink:href="#DejaVuSans-30"/>
       <use xlink:href="#DejaVuSans-2e" x="63.623047"/>
       <use xlink:href="#DejaVuSans-35" x="95.410156"/>
      </g>
     </g>
    </g>
    <g id="ytick_3">
     <g id="line2d_7">
      <g>
       <use xlink:href="#m0feb7e770a" x="59.13" y="311.72698" style="stroke: #000000; stroke-width: 0.8"/>
      </g>
     </g>
     <g id="text_8">
      <!-- 1.0 -->
      <g transform="translate(26.685 317.80573) scale(0.16 -0.16)">
       <use xlink:href="#DejaVuSans-31"/>
       <use xlink:href="#DejaVuSans-2e" x="63.623047"/>
       <use xlink:href="#DejaVuSans-30" x="95.410156"/>
      </g>
     </g>
    </g>
    <g id="ytick_4">
     <g id="line2d_8">
      <g>
       <use xlink:href="#m0feb7e770a" x="59.13" y="272.114971" style="stroke: #000000; stroke-width: 0.8"/>
      </g>
     </g>
     <g id="text_9">
      <!-- 1.5 -->
      <g transform="translate(26.685 278.193721) scale(0.16 -0.16)">
       <use xlink:href="#DejaVuSans-31"/>
       <use xlink:href="#DejaVuSans-2e" x="63.623047"/>
       <use xlink:href="#DejaVuSans-35" x="95.410156"/>
      </g>
     </g>
    </g>
    <g id="ytick_5">
     <g id="line2d_9">
      <g>
       <use xlink:href="#m0feb7e770a" x="59.13" y="232.502961" style="stroke: #000000; stroke-width: 0.8"/>
      </g>
     </g>
     <g id="text_10">
      <!-- 2.0 -->
      <g transform="translate(26.685 238.581711) scale(0.16 -0.16)">
       <defs>
        <path id="DejaVuSans-32" d="M 1228 531 
L 3431 531 
L 3431 0 
L 469 0 
L 469 531 
Q 828 903 1448 1529 
Q 2069 2156 2228 2338 
Q 2531 2678 2651 2914 
Q 2772 3150 2772 3378 
Q 2772 3750 2511 3984 
Q 2250 4219 1831 4219 
Q 1534 4219 1204 4116 
Q 875 4013 500 3803 
L 500 4441 
Q 881 4594 1212 4672 
Q 1544 4750 1819 4750 
Q 2544 4750 2975 4387 
Q 3406 4025 3406 3419 
Q 3406 3131 3298 2873 
Q 3191 2616 2906 2266 
Q 2828 2175 2409 1742 
Q 1991 1309 1228 531 
z
" transform="scale(0.015625)"/>
       </defs>
       <use xlink:href="#DejaVuSans-32"/>
       <use xlink:href="#DejaVuSans-2e" x="63.623047"/>
       <use xlink:href="#DejaVuSans-30" x="95.410156"/>
      </g>
     </g>
    </g>
    <g id="ytick_6">
     <g id="line2d_10">
      <g>
       <use xlink:href="#m0feb7e770a" x="59.13" y="192.890951" style="stroke: #000000; stroke-width: 0.8"/>
      </g>
     </g>
     <g id="text_11">
      <!-- 2.5 -->
      <g transform="translate(26.685 198.969701) scale(0.16 -0.16)">
       <use xlink:href="#DejaVuSans-32"/>
       <use xlink:href="#DejaVuSans-2e" x="63.623047"/>
       <use xlink:href="#DejaVuSans-35" x="95.410156"/>
      </g>
     </g>
    </g>
    <g id="ytick_7">
     <g id="line2d_11">
      <g>
       <use xlink:href="#m0feb7e770a" x="59.13" y="153.278941" style="stroke: #000000; stroke-width: 0.8"/>
      </g>
     </g>
     <g id="text_12">
      <!-- 3.0 -->
      <g transform="translate(26.685 159.357691) scale(0.16 -0.16)">
       <defs>
        <path id="DejaVuSans-33" d="M 2597 2516 
Q 3050 2419 3304 2112 
Q 3559 1806 3559 1356 
Q 3559 666 3084 287 
Q 2609 -91 1734 -91 
Q 1441 -91 1130 -33 
Q 819 25 488 141 
L 488 750 
Q 750 597 1062 519 
Q 1375 441 1716 441 
Q 2309 441 2620 675 
Q 2931 909 2931 1356 
Q 2931 1769 2642 2001 
Q 2353 2234 1838 2234 
L 1294 2234 
L 1294 2753 
L 1863 2753 
Q 2328 2753 2575 2939 
Q 2822 3125 2822 3475 
Q 2822 3834 2567 4026 
Q 2313 4219 1838 4219 
Q 1578 4219 1281 4162 
Q 984 4106 628 3988 
L 628 4550 
Q 988 4650 1302 4700 
Q 1616 4750 1894 4750 
Q 2613 4750 3031 4423 
Q 3450 4097 3450 3541 
Q 3450 3153 3228 2886 
Q 3006 2619 2597 2516 
z
" transform="scale(0.015625)"/>
       </defs>
       <use xlink:href="#DejaVuSans-33"/>
       <use xlink:href="#DejaVuSans-2e" x="63.623047"/>
       <use xlink:href="#DejaVuSans-30" x="95.410156"/>
      </g>
     </g>
    </g>
    <g id="ytick_8">
     <g id="line2d_12">
      <g>
       <use xlink:href="#m0feb7e770a" x="59.13" y="113.666932" style="stroke: #000000; stroke-width: 0.8"/>
      </g>
     </g>
     <g id="text_13">
      <!-- 3.5 -->
      <g transform="translate(26.685 119.745682) scale(0.16 -0.16)">
       <use xlink:href="#DejaVuSans-33"/>
       <use xlink:href="#DejaVuSans-2e" x="63.623047"/>
       <use xlink:href="#DejaVuSans-35" x="95.410156"/>
      </g>
     </g>
    </g>
    <g id="ytick_9">
     <g id="line2d_13">
      <g>
       <use xlink:href="#m0feb7e770a" x="59.13" y="74.054922" style="stroke: #000000; stroke-width: 0.8"/>
      </g>
     </g>
     <g id="text_14">
      <!-- 4.0 -->
      <g transform="translate(26.685 80.133672) scale(0.16 -0.16)">
       <defs>
        <path id="DejaVuSans-34" d="M 2419 4116 
L 825 1625 
L 2419 1625 
L 2419 4116 
z
M 2253 4666 
L 3047 4666 
L 3047 1625 
L 3713 1625 
L 3713 1100 
L 3047 1100 
L 3047 0 
L 2419 0 
L 2419 1100 
L 313 1100 
L 313 1709 
L 2253 4666 
z
" transform="scale(0.015625)"/>
       </defs>
       <use xlink:href="#DejaVuSans-34"/>
       <use xlink:href="#DejaVuSans-2e" x="63.623047"/>
       <use xlink:href="#DejaVuSans-30" x="95.410156"/>
      </g>
     </g>
    </g>
    <g id="text_15">
     <!-- Relative Speedup (Python transpiler = 1) -->
     <g transform="translate(19.3575 388.90225) rotate(-90) scale(0.16 -0.16)">
      <defs>
       <path id="DejaVuSans-52" d="M 2841 2188 
Q 3044 2119 3236 1894 
Q 3428 1669 3622 1275 
L 4263 0 
L 3584 0 
L 2988 1197 
Q 2756 1666 2539 1819 
Q 2322 1972 1947 1972 
L 1259 1972 
L 1259 0 
L 628 0 
L 628 4666 
L 2053 4666 
Q 2853 4666 3247 4331 
Q 3641 3997 3641 3322 
Q 3641 2881 3436 2590 
Q 3231 2300 2841 2188 
z
M 1259 4147 
L 1259 2491 
L 2053 2491 
Q 2509 2491 2742 2702 
Q 2975 2913 2975 3322 
Q 2975 3731 2742 3939 
Q 2509 4147 2053 4147 
L 1259 4147 
z
" transform="scale(0.015625)"/>
       <path id="DejaVuSans-6c" d="M 603 4863 
L 1178 4863 
L 1178 0 
L 603 0 
L 603 4863 
z
" transform="scale(0.015625)"/>
       <path id="DejaVuSans-76" d="M 191 3500 
L 800 3500 
L 1894 563 
L 2988 3500 
L 3597 3500 
L 2284 0 
L 1503 0 
L 191 3500 
z
" transform="scale(0.015625)"/>
       <path id="DejaVuSans-70" d="M 1159 525 
L 1159 -1331 
L 581 -1331 
L 581 3500 
L 1159 3500 
L 1159 2969 
Q 1341 3281 1617 3432 
Q 1894 3584 2278 3584 
Q 2916 3584 3314 3078 
Q 3713 2572 3713 1747 
Q 3713 922 3314 415 
Q 2916 -91 2278 -91 
Q 1894 -91 1617 61 
Q 1341 213 1159 525 
z
M 3116 1747 
Q 3116 2381 2855 2742 
Q 2594 3103 2138 3103 
Q 1681 3103 1420 2742 
Q 1159 2381 1159 1747 
Q 1159 1113 1420 752 
Q 1681 391 2138 391 
Q 2594 391 2855 752 
Q 3116 1113 3116 1747 
z
" transform="scale(0.015625)"/>
       <path id="DejaVuSans-64" d="M 2906 2969 
L 2906 4863 
L 3481 4863 
L 3481 0 
L 2906 0 
L 2906 525 
Q 2725 213 2448 61 
Q 2172 -91 1784 -91 
Q 1150 -91 751 415 
Q 353 922 353 1747 
Q 353 2572 751 3078 
Q 1150 3584 1784 3584 
Q 2172 3584 2448 3432 
Q 2725 3281 2906 2969 
z
M 947 1747 
Q 947 1113 1208 752 
Q 1469 391 1925 391 
Q 2381 391 2643 752 
Q 2906 1113 2906 1747 
Q 2906 2381 2643 2742 
Q 2381 3103 1925 3103 
Q 1469 3103 1208 2742 
Q 947 2381 947 1747 
z
" transform="scale(0.015625)"/>
       <path id="DejaVuSans-75" d="M 544 1381 
L 544 3500 
L 1119 3500 
L 1119 1403 
Q 1119 906 1312 657 
Q 1506 409 1894 409 
Q 2359 409 2629 706 
Q 2900 1003 2900 1516 
L 2900 3500 
L 3475 3500 
L 3475 0 
L 2900 0 
L 2900 538 
Q 2691 219 2414 64 
Q 2138 -91 1772 -91 
Q 1169 -91 856 284 
Q 544 659 544 1381 
z
M 1991 3584 
L 1991 3584 
z
" transform="scale(0.015625)"/>
       <path id="DejaVuSans-28" d="M 1984 4856 
Q 1566 4138 1362 3434 
Q 1159 2731 1159 2009 
Q 1159 1288 1364 580 
Q 1569 -128 1984 -844 
L 1484 -844 
Q 1016 -109 783 600 
Q 550 1309 550 2009 
Q 550 2706 781 3412 
Q 1013 4119 1484 4856 
L 1984 4856 
z
" transform="scale(0.015625)"/>
       <path id="DejaVuSans-50" d="M 1259 4147 
L 1259 2394 
L 2053 2394 
Q 2494 2394 2734 2622 
Q 2975 2850 2975 3272 
Q 2975 3691 2734 3919 
Q 2494 4147 2053 4147 
L 1259 4147 
z
M 628 4666 
L 2053 4666 
Q 2838 4666 3239 4311 
Q 3641 3956 3641 3272 
Q 3641 2581 3239 2228 
Q 2838 1875 2053 1875 
L 1259 1875 
L 1259 0 
L 628 0 
L 628 4666 
z
" transform="scale(0.015625)"/>
       <path id="DejaVuSans-79" d="M 2059 -325 
Q 1816 -950 1584 -1140 
Q 1353 -1331 966 -1331 
L 506 -1331 
L 506 -850 
L 844 -850 
Q 1081 -850 1212 -737 
Q 1344 -625 1503 -206 
L 1606 56 
L 191 3500 
L 800 3500 
L 1894 763 
L 2988 3500 
L 3597 3500 
L 2059 -325 
z
" transform="scale(0.015625)"/>
       <path id="DejaVuSans-68" d="M 3513 2113 
L 3513 0 
L 2938 0 
L 2938 2094 
Q 2938 2591 2744 2837 
Q 2550 3084 2163 3084 
Q 1697 3084 1428 2787 
Q 1159 2491 1159 1978 
L 1159 0 
L 581 0 
L 581 4863 
L 1159 4863 
L 1159 2956 
Q 1366 3272 1645 3428 
Q 1925 3584 2291 3584 
Q 2894 3584 3203 3211 
Q 3513 2838 3513 2113 
z
" transform="scale(0.015625)"/>
       <path id="DejaVuSans-6e" d="M 3513 2113 
L 3513 0 
L 2938 0 
L 2938 2094 
Q 2938 2591 2744 2837 
Q 2550 3084 2163 3084 
Q 1697 3084 1428 2787 
Q 1159 2491 1159 1978 
L 1159 0 
L 581 0 
L 581 3500 
L 1159 3500 
L 1159 2956 
Q 1366 3272 1645 3428 
Q 1925 3584 2291 3584 
Q 2894 3584 3203 3211 
Q 3513 2838 3513 2113 
z
" transform="scale(0.015625)"/>
       <path id="DejaVuSans-3d" d="M 678 2906 
L 4684 2906 
L 4684 2381 
L 678 2381 
L 678 2906 
z
M 678 1631 
L 4684 1631 
L 4684 1100 
L 678 1100 
L 678 1631 
z
" transform="scale(0.015625)"/>
       <path id="DejaVuSans-29" d="M 513 4856 
L 1013 4856 
Q 1481 4119 1714 3412 
Q 1947 2706 1947 2009 
Q 1947 1309 1714 600 
Q 1481 -109 1013 -844 
L 513 -844 
Q 928 -128 1133 580 
Q 1338 1288 1338 2009 
Q 1338 2731 1133 3434 
Q 928 4138 513 4856 
z
" transform="scale(0.015625)"/>
      </defs>
      <use xlink:href="#DejaVuSans-52"/>
      <use xlink:href="#DejaVuSans-65" x="64.982422"/>
      <use xlink:href="#DejaVuSans-6c" x="126.505859"/>
      <use xlink:href="#DejaVuSans-61" x="154.289062"/>
      <use xlink:href="#DejaVuSans-74" x="215.568359"/>
      <use xlink:href="#DejaVuSans-69" x="254.777344"/>
      <use xlink:href="#DejaVuSans-76" x="282.560547"/>
      <use xlink:href="#DejaVuSans-65" x="341.740234"/>
      <use xlink:href="#DejaVuSans-20" x="403.263672"/>
      <use xlink:href="#DejaVuSans-53" x="435.050781"/>
      <use xlink:href="#DejaVuSans-70" x="498.527344"/>
      <use xlink:href="#DejaVuSans-65" x="562.003906"/>
      <use xlink:href="#DejaVuSans-65" x="623.527344"/>
      <use xlink:href="#DejaVuSans-64" x="685.050781"/>
      <use xlink:href="#DejaVuSans-75" x="748.527344"/>
      <use xlink:href="#DejaVuSans-70" x="811.90625"/>
      <use xlink:href="#DejaVuSans-20" x="875.382812"/>
      <use xlink:href="#DejaVuSans-28" x="907.169922"/>
      <use xlink:href="#DejaVuSans-50" x="946.183594"/>
      <use xlink:href="#DejaVuSans-79" x="1006.486328"/>
      <use xlink:href="#DejaVuSans-74" x="1065.666016"/>
      <use xlink:href="#DejaVuSans-68" x="1104.875"/>
      <use xlink:href="#DejaVuSans-6f" x="1168.253906"/>
      <use xlink:href="#DejaVuSans-6e" x="1229.435547"/>
      <use xlink:href="#DejaVuSans-20" x="1292.814453"/>
      <use xlink:href="#DejaVuSans-74" x="1324.601562"/>
      <use xlink:href="#DejaVuSans-72" x="1363.810547"/>
      <use xlink:href="#DejaVuSans-61" x="1404.923828"/>
      <use xlink:href="#DejaVuSans-6e" x="1466.203125"/>
      <use xlink:href="#DejaVuSans-73" x="1529.582031"/>
      <use xlink:href="#DejaVuSans-70" x="1581.681641"/>
      <use xlink:href="#DejaVuSans-69" x="1645.158203"/>
      <use xlink:href="#DejaVuSans-6c" x="1672.941406"/>
      <use xlink:href="#DejaVuSans-65" x="1700.724609"/>
      <use xlink:href="#DejaVuSans-72" x="1762.248047"/>
      <use xlink:href="#DejaVuSans-20" x="1803.361328"/>
      <use xlink:href="#DejaVuSans-3d" x="1835.148438"/>
      <use xlink:href="#DejaVuSans-20" x="1918.9375"/>
      <use xlink:href="#DejaVuSans-31" x="1950.724609"/>
      <use xlink:href="#DejaVuSans-29" x="2014.347656"/>
     </g>
    </g>
   </g>
   <g id="line2d_14">
    <path clip-path="url(#p414c1bfbbe)" style="fill: none; stroke: #424242; stroke-width: 2.25; stroke-linecap: square"/>
   </g>
   <g id="line2d_15">
    <path clip-path="url(#p414c1bfbbe)" style="fill: none; stroke: #424242; stroke-width: 2.25; stroke-linecap: square"/>
   </g>
   <g id="line2d_16">
    <path clip-path="url(#p414c1bfbbe)" style="fill: none; stroke: #424242; stroke-width: 2.25; stroke-linecap: square"/>
   </g>
   <g id="line2d_17">
    <path clip-path="url(#p414c1bfbbe)" style="fill: none; stroke: #424242; stroke-width: 2.25; stroke-linecap: square"/>
   </g>
   <g id="line2d_18">
    <path clip-path="url(#p414c1bfbbe)" style="fill: none; stroke: #424242; stroke-width: 2.25; stroke-linecap: square"/>
   </g>
   <g id="line2d_19">
    <path clip-path="url(#p414c1bfbbe)" style="fill: none; stroke: #424242; stroke-width: 2.25; stroke-linecap: square"/>
   </g>
   <g id="line2d_20">
    <path clip-path="url(#p414c1bfbbe)" style="fill: none; stroke: #424242; stroke-width: 2.25; stroke-linecap: square"/>
   </g>
   <g id="line2d_21">
    <path clip-path="url(#p414c1bfbbe)" style="fill: none; stroke: #424242; stroke-width: 2.25; stroke-linecap: square"/>
   </g>
   <g id="line2d_22">
    <path d="M 59.13 311.72698 
L 728.73 311.72698 
" clip-path="url(#p414c1bfbbe)" style="fill: none; stroke: #d6006d; stroke-width: 4; stroke-linecap: square"/>
   </g>
   <g id="patch_13">
    <path d="M 59.13 390.951 
L 59.13 58.311 
" style="fill: none; stroke: #000000; stroke-width: 0.8; stroke-linejoin: miter; stroke-linecap: square"/>
   </g>
   <g id="patch_14">
    <path d="M 728.73 390.951 
L 728.73 58.311 
" style="fill: none; stroke: #000000; stroke-width: 0.8; stroke-linejoin: miter; stroke-linecap: square"/>
   </g>
   <g id="patch_15">
    <path d="M 59.13 390.951 
L 728.73 390.951 
" style="fill: none; stroke: #000000; stroke-width: 0.8; stroke-linejoin: miter; stroke-linecap: square"/>
   </g>
   <g id="patch_16">
    <path d="M 59.13 58.311 
L 728.73 58.311 
" style="fill: none; stroke: #000000; stroke-width: 0.8; stroke-linejoin: miter; stroke-linecap: square"/>
   </g>
   <g id="text_16">
    <!-- Relative Speedup Compared to Expressions transpiler -->
    <g transform="translate(70.693125 25.43625) scale(0.24 -0.24)">
     <defs>
      <path id="DejaVuSans-43" d="M 4122 4306 
L 4122 3641 
Q 3803 3938 3442 4084 
Q 3081 4231 2675 4231 
Q 1875 4231 1450 3742 
Q 1025 3253 1025 2328 
Q 1025 1406 1450 917 
Q 1875 428 2675 428 
Q 3081 428 3442 575 
Q 3803 722 4122 1019 
L 4122 359 
Q 3791 134 3420 21 
Q 3050 -91 2638 -91 
Q 1578 -91 968 557 
Q 359 1206 359 2328 
Q 359 3453 968 4101 
Q 1578 4750 2638 4750 
Q 3056 4750 3426 4639 
Q 3797 4528 4122 4306 
z
" transform="scale(0.015625)"/>
      <path id="DejaVuSans-6d" d="M 3328 2828 
Q 3544 3216 3844 3400 
Q 4144 3584 4550 3584 
Q 5097 3584 5394 3201 
Q 5691 2819 5691 2113 
L 5691 0 
L 5113 0 
L 5113 2094 
Q 5113 2597 4934 2840 
Q 4756 3084 4391 3084 
Q 3944 3084 3684 2787 
Q 3425 2491 3425 1978 
L 3425 0 
L 2847 0 
L 2847 2094 
Q 2847 2600 2669 2842 
Q 2491 3084 2119 3084 
Q 1678 3084 1418 2786 
Q 1159 2488 1159 1978 
L 1159 0 
L 581 0 
L 581 3500 
L 1159 3500 
L 1159 2956 
Q 1356 3278 1631 3431 
Q 1906 3584 2284 3584 
Q 2666 3584 2933 3390 
Q 3200 3197 3328 2828 
z
" transform="scale(0.015625)"/>
      <path id="DejaVuSans-45" d="M 628 4666 
L 3578 4666 
L 3578 4134 
L 1259 4134 
L 1259 2753 
L 3481 2753 
L 3481 2222 
L 1259 2222 
L 1259 531 
L 3634 531 
L 3634 0 
L 628 0 
L 628 4666 
z
" transform="scale(0.015625)"/>
      <path id="DejaVuSans-78" d="M 3513 3500 
L 2247 1797 
L 3578 0 
L 2900 0 
L 1881 1375 
L 863 0 
L 184 0 
L 1544 1831 
L 300 3500 
L 978 3500 
L 1906 2253 
L 2834 3500 
L 3513 3500 
z
" transform="scale(0.015625)"/>
     </defs>
     <use xlink:href="#DejaVuSans-52"/>
     <use xlink:href="#DejaVuSans-65" x="64.982422"/>
     <use xlink:href="#DejaVuSans-6c" x="126.505859"/>
     <use xlink:href="#DejaVuSans-61" x="154.289062"/>
     <use xlink:href="#DejaVuSans-74" x="215.568359"/>
     <use xlink:href="#DejaVuSans-69" x="254.777344"/>
     <use xlink:href="#DejaVuSans-76" x="282.560547"/>
     <use xlink:href="#DejaVuSans-65" x="341.740234"/>
     <use xlink:href="#DejaVuSans-20" x="403.263672"/>
     <use xlink:href="#DejaVuSans-53" x="435.050781"/>
     <use xlink:href="#DejaVuSans-70" x="498.527344"/>
     <use xlink:href="#DejaVuSans-65" x="562.003906"/>
     <use xlink:href="#DejaVuSans-65" x="623.527344"/>
     <use xlink:href="#DejaVuSans-64" x="685.050781"/>
     <use xlink:href="#DejaVuSans-75" x="748.527344"/>
     <use xlink:href="#DejaVuSans-70" x="811.90625"/>
     <use xlink:href="#DejaVuSans-20" x="875.382812"/>
     <use xlink:href="#DejaVuSans-43" x="907.169922"/>
     <use xlink:href="#DejaVuSans-6f" x="976.994141"/>
     <use xlink:href="#DejaVuSans-6d" x="1038.175781"/>
     <use xlink:href="#DejaVuSans-70" x="1135.587891"/>
     <use xlink:href="#DejaVuSans-61" x="1199.064453"/>
     <use xlink:href="#DejaVuSans-72" x="1260.34375"/>
     <use xlink:href="#DejaVuSans-65" x="1299.207031"/>
     <use xlink:href="#DejaVuSans-64" x="1360.730469"/>
     <use xlink:href="#DejaVuSans-20" x="1424.207031"/>
     <use xlink:href="#DejaVuSans-74" x="1455.994141"/>
     <use xlink:href="#DejaVuSans-6f" x="1495.203125"/>
     <use xlink:href="#DejaVuSans-20" x="1556.384766"/>
     <use xlink:href="#DejaVuSans-45" x="1588.171875"/>
     <use xlink:href="#DejaVuSans-78" x="1651.355469"/>
     <use xlink:href="#DejaVuSans-70" x="1710.535156"/>
     <use xlink:href="#DejaVuSans-72" x="1774.011719"/>
     <use xlink:href="#DejaVuSans-65" x="1812.875"/>
     <use xlink:href="#DejaVuSans-73" x="1874.398438"/>
     <use xlink:href="#DejaVuSans-73" x="1926.498047"/>
     <use xlink:href="#DejaVuSans-69" x="1978.597656"/>
     <use xlink:href="#DejaVuSans-6f" x="2006.380859"/>
     <use xlink:href="#DejaVuSans-6e" x="2067.5625"/>
     <use xlink:href="#DejaVuSans-73" x="2130.941406"/>
     <use xlink:href="#DejaVuSans-20" x="2183.041016"/>
     <use xlink:href="#DejaVuSans-74" x="2214.828125"/>
     <use xlink:href="#DejaVuSans-72" x="2254.037109"/>
     <use xlink:href="#DejaVuSans-61" x="2295.150391"/>
     <use xlink:href="#DejaVuSans-6e" x="2356.429688"/>
     <use xlink:href="#DejaVuSans-73" x="2419.808594"/>
     <use xlink:href="#DejaVuSans-70" x="2471.908203"/>
     <use xlink:href="#DejaVuSans-69" x="2535.384766"/>
     <use xlink:href="#DejaVuSans-6c" x="2563.167969"/>
     <use xlink:href="#DejaVuSans-65" x="2590.951172"/>
     <use xlink:href="#DejaVuSans-72" x="2652.474609"/>
    </g>
    <!--  by Platform and Dataset Size on the continents Test Case -->
    <g transform="translate(45.493125 52.311) scale(0.24 -0.24)">
     <defs>
      <path id="DejaVuSans-62" d="M 3116 1747 
Q 3116 2381 2855 2742 
Q 2594 3103 2138 3103 
Q 1681 3103 1420 2742 
Q 1159 2381 1159 1747 
Q 1159 1113 1420 752 
Q 1681 391 2138 391 
Q 2594 391 2855 752 
Q 3116 1113 3116 1747 
z
M 1159 2969 
Q 1341 3281 1617 3432 
Q 1894 3584 2278 3584 
Q 2916 3584 3314 3078 
Q 3713 2572 3713 1747 
Q 3713 922 3314 415 
Q 2916 -91 2278 -91 
Q 1894 -91 1617 61 
Q 1341 213 1159 525 
L 1159 0 
L 581 0 
L 581 4863 
L 1159 4863 
L 1159 2969 
z
" transform="scale(0.015625)"/>
      <path id="DejaVuSans-66" d="M 2375 4863 
L 2375 4384 
L 1825 4384 
Q 1516 4384 1395 4259 
Q 1275 4134 1275 3809 
L 1275 3500 
L 2222 3500 
L 2222 3053 
L 1275 3053 
L 1275 0 
L 697 0 
L 697 3053 
L 147 3053 
L 147 3500 
L 697 3500 
L 697 3744 
Q 697 4328 969 4595 
Q 1241 4863 1831 4863 
L 2375 4863 
z
" transform="scale(0.015625)"/>
      <path id="DejaVuSans-63" d="M 3122 3366 
L 3122 2828 
Q 2878 2963 2633 3030 
Q 2388 3097 2138 3097 
Q 1578 3097 1268 2742 
Q 959 2388 959 1747 
Q 959 1106 1268 751 
Q 1578 397 2138 397 
Q 2388 397 2633 464 
Q 2878 531 3122 666 
L 3122 134 
Q 2881 22 2623 -34 
Q 2366 -91 2075 -91 
Q 1284 -91 818 406 
Q 353 903 353 1747 
Q 353 2603 823 3093 
Q 1294 3584 2113 3584 
Q 2378 3584 2631 3529 
Q 2884 3475 3122 3366 
z
" transform="scale(0.015625)"/>
      <path id="DejaVuSans-54" d="M -19 4666 
L 3928 4666 
L 3928 4134 
L 2272 4134 
L 2272 0 
L 1638 0 
L 1638 4134 
L -19 4134 
L -19 4666 
z
" transform="scale(0.015625)"/>
     </defs>
     <use xlink:href="#DejaVuSans-20"/>
     <use xlink:href="#DejaVuSans-62" x="31.787109"/>
     <use xlink:href="#DejaVuSans-79" x="95.263672"/>
     <use xlink:href="#DejaVuSans-20" x="154.443359"/>
     <use xlink:href="#DejaVuSans-50" x="186.230469"/>
     <use xlink:href="#DejaVuSans-6c" x="246.533203"/>
     <use xlink:href="#DejaVuSans-61" x="274.316406"/>
     <use xlink:href="#DejaVuSans-74" x="335.595703"/>
     <use xlink:href="#DejaVuSans-66" x="374.804688"/>
     <use xlink:href="#DejaVuSans-6f" x="410.009766"/>
     <use xlink:href="#DejaVuSans-72" x="471.191406"/>
     <use xlink:href="#DejaVuSans-6d" x="510.554688"/>
     <use xlink:href="#DejaVuSans-20" x="607.966797"/>
     <use xlink:href="#DejaVuSans-61" x="639.753906"/>
     <use xlink:href="#DejaVuSans-6e" x="701.033203"/>
     <use xlink:href="#DejaVuSans-64" x="764.412109"/>
     <use xlink:href="#DejaVuSans-20" x="827.888672"/>
     <use xlink:href="#DejaVuSans-44" x="859.675781"/>
     <use xlink:href="#DejaVuSans-61" x="936.677734"/>
     <use xlink:href="#DejaVuSans-74" x="997.957031"/>
     <use xlink:href="#DejaVuSans-61" x="1037.166016"/>
     <use xlink:href="#DejaVuSans-73" x="1098.445312"/>
     <use xlink:href="#DejaVuSans-65" x="1150.544922"/>
     <use xlink:href="#DejaVuSans-74" x="1212.068359"/>
     <use xlink:href="#DejaVuSans-20" x="1251.277344"/>
     <use xlink:href="#DejaVuSans-53" x="1283.064453"/>
     <use xlink:href="#DejaVuSans-69" x="1346.541016"/>
     <use xlink:href="#DejaVuSans-7a" x="1374.324219"/>
     <use xlink:href="#DejaVuSans-65" x="1426.814453"/>
     <use xlink:href="#DejaVuSans-20" x="1488.337891"/>
     <use xlink:href="#DejaVuSans-6f" x="1520.125"/>
     <use xlink:href="#DejaVuSans-6e" x="1581.306641"/>
     <use xlink:href="#DejaVuSans-20" x="1644.685547"/>
     <use xlink:href="#DejaVuSans-74" x="1676.472656"/>
     <use xlink:href="#DejaVuSans-68" x="1715.681641"/>
     <use xlink:href="#DejaVuSans-65" x="1779.060547"/>
     <use xlink:href="#DejaVuSans-20" x="1840.583984"/>
     <use xlink:href="#DejaVuSans-63" x="1872.371094"/>
     <use xlink:href="#DejaVuSans-6f" x="1927.351562"/>
     <use xlink:href="#DejaVuSans-6e" x="1988.533203"/>
     <use xlink:href="#DejaVuSans-74" x="2051.912109"/>
     <use xlink:href="#DejaVuSans-69" x="2091.121094"/>
     <use xlink:href="#DejaVuSans-6e" x="2118.904297"/>
     <use xlink:href="#DejaVuSans-65" x="2182.283203"/>
     <use xlink:href="#DejaVuSans-6e" x="2243.806641"/>
     <use xlink:href="#DejaVuSans-74" x="2307.185547"/>
     <use xlink:href="#DejaVuSans-73" x="2346.394531"/>
     <use xlink:href="#DejaVuSans-20" x="2398.494141"/>
     <use xlink:href="#DejaVuSans-54" x="2430.28125"/>
     <use xlink:href="#DejaVuSans-65" x="2474.365234"/>
     <use xlink:href="#DejaVuSans-73" x="2535.888672"/>
     <use xlink:href="#DejaVuSans-74" x="2587.988281"/>
     <use xlink:href="#DejaVuSans-20" x="2627.197266"/>
     <use xlink:href="#DejaVuSans-43" x="2658.984375"/>
     <use xlink:href="#DejaVuSans-61" x="2728.808594"/>
     <use xlink:href="#DejaVuSans-73" x="2790.087891"/>
     <use xlink:href="#DejaVuSans-65" x="2842.1875"/>
    </g>
   </g>
   <g id="legend_1">
    <g id="patch_17">
     <path d="M 567.133125 122.687875 
L 720.33 122.687875 
Q 722.73 122.687875 722.73 120.287875 
L 722.73 66.711 
Q 722.73 64.311 720.33 64.311 
L 567.133125 64.311 
Q 564.733125 64.311 564.733125 66.711 
L 564.733125 120.287875 
Q 564.733125 122.687875 567.133125 122.687875 
z
" style="fill: #ffffff; opacity: 0.8; stroke: #cccccc; stroke-linejoin: miter"/>
    </g>
    <g id="text_17">
     <!-- Platform -->
     <g transform="translate(614.21125 79.748812) scale(0.14 -0.14)">
      <use xlink:href="#DejaVuSans-50"/>
      <use xlink:href="#DejaVuSans-6c" x="60.302734"/>
      <use xlink:href="#DejaVuSans-61" x="88.085938"/>
      <use xlink:href="#DejaVuSans-74" x="149.365234"/>
      <use xlink:href="#DejaVuSans-66" x="188.574219"/>
      <use xlink:href="#DejaVuSans-6f" x="223.779297"/>
      <use xlink:href="#DejaVuSans-72" x="284.960938"/>
      <use xlink:href="#DejaVuSans-6d" x="324.324219"/>
     </g>
    </g>
    <g id="patch_18">
     <path d="M 569.533125 97.7785 
L 593.533125 97.7785 
L 593.533125 89.3785 
L 569.533125 89.3785 
z
" style="fill: #df9c20"/>
    </g>
    <g id="text_18">
     <!-- Great Expectations -->
     <g transform="translate(603.133125 97.7785) scale(0.12 -0.12)">
      <defs>
       <path id="DejaVuSans-47" d="M 3809 666 
L 3809 1919 
L 2778 1919 
L 2778 2438 
L 4434 2438 
L 4434 434 
Q 4069 175 3628 42 
Q 3188 -91 2688 -91 
Q 1594 -91 976 548 
Q 359 1188 359 2328 
Q 359 3472 976 4111 
Q 1594 4750 2688 4750 
Q 3144 4750 3555 4637 
Q 3966 4525 4313 4306 
L 4313 3634 
Q 3963 3931 3569 4081 
Q 3175 4231 2741 4231 
Q 1884 4231 1454 3753 
Q 1025 3275 1025 2328 
Q 1025 1384 1454 906 
Q 1884 428 2741 428 
Q 3075 428 3337 486 
Q 3600 544 3809 666 
z
" transform="scale(0.015625)"/>
      </defs>
      <use xlink:href="#DejaVuSans-47"/>
      <use xlink:href="#DejaVuSans-72" x="77.490234"/>
      <use xlink:href="#DejaVuSans-65" x="116.353516"/>
      <use xlink:href="#DejaVuSans-61" x="177.876953"/>
      <use xlink:href="#DejaVuSans-74" x="239.15625"/>
      <use xlink:href="#DejaVuSans-20" x="278.365234"/>
      <use xlink:href="#DejaVuSans-45" x="310.152344"/>
      <use xlink:href="#DejaVuSans-78" x="373.335938"/>
      <use xlink:href="#DejaVuSans-70" x="432.515625"/>
      <use xlink:href="#DejaVuSans-65" x="495.992188"/>
      <use xlink:href="#DejaVuSans-63" x="557.515625"/>
      <use xlink:href="#DejaVuSans-74" x="612.496094"/>
      <use xlink:href="#DejaVuSans-61" x="651.705078"/>
      <use xlink:href="#DejaVuSans-74" x="712.984375"/>
      <use xlink:href="#DejaVuSans-69" x="752.193359"/>
      <use xlink:href="#DejaVuSans-6f" x="779.976562"/>
      <use xlink:href="#DejaVuSans-6e" x="841.158203"/>
      <use xlink:href="#DejaVuSans-73" x="904.537109"/>
     </g>
    </g>
    <g id="patch_19">
     <path d="M 569.533125 115.39225 
L 593.533125 115.39225 
L 593.533125 106.99225 
L 569.533125 106.99225 
z
" style="fill: #20dfdf"/>
    </g>
    <g id="text_19">
     <!-- Soda Core -->
     <g transform="translate(603.133125 115.39225) scale(0.12 -0.12)">
      <use xlink:href="#DejaVuSans-53"/>
      <use xlink:href="#DejaVuSans-6f" x="63.476562"/>
      <use xlink:href="#DejaVuSans-64" x="124.658203"/>
      <use xlink:href="#DejaVuSans-61" x="188.134766"/>
      <use xlink:href="#DejaVuSans-20" x="249.414062"/>
      <use xlink:href="#DejaVuSans-43" x="281.201172"/>
      <use xlink:href="#DejaVuSans-6f" x="351.025391"/>
      <use xlink:href="#DejaVuSans-72" x="412.207031"/>
      <use xlink:href="#DejaVuSans-65" x="451.070312"/>
     </g>
    </g>
   </g>
  </g>
 </g>
 <defs>
  <clipPath id="p414c1bfbbe">
   <rect x="59.13" y="58.311" width="669.6" height="332.64"/>
  </clipPath>
 </defs>
</svg>
