<svg version="1.1" xmlns="http://www.w3.org/2000/svg" viewBox="0 0 2402.996760183234 1516.368541212712" width="7208.990280549702" height="4549.1056236381355">
  <!-- svg-source:excalidraw -->
  
  <defs>
    <style class="style-fonts">
      @font-face {
        font-family: "Virgil";
        src: url("https://excalidraw.com/Virgil.woff2");
      }
      @font-face {
        font-family: "Cascadia";
        src: url("https://excalidraw.com/Cascadia.woff2");
      }
      @font-face {
        font-family: "Assistant";
        src: url("https://excalidraw.com/Assistant-Regular.woff2");
      }
    </style>
    
  </defs>
  <rect x="0" y="0" width="2402.996760183234" height="1516.368541212712" fill="#ffffff"></rect><g stroke-linecap="round" transform="translate(10 1031.4484108853403) rotate(0 260.5557715100048 235.56241213254611)"><path d="M32 0 C164.74 0.22, 297.53 1.39, 489.11 0 M32 0 C142.31 2.08, 253.24 1.9, 489.11 0 M489.11 0 C510.13 -0.12, 521.94 9.29, 521.11 32 M489.11 0 C512.46 1.27, 522.03 11.29, 521.11 32 M521.11 32 C521.62 140.47, 522.7 248.78, 521.11 439.12 M521.11 32 C522.99 178.53, 522.33 325.79, 521.11 439.12 M521.11 439.12 C519.66 458.46, 508.51 472.75, 489.11 471.12 M521.11 439.12 C520.58 460.74, 509.46 470.32, 489.11 471.12 M489.11 471.12 C330.01 470.39, 170.61 470.26, 32 471.12 M489.11 471.12 C330.44 470.01, 171.6 470.54, 32 471.12 M32 471.12 C11.1 471.23, 0.18 462.43, 0 439.12 M32 471.12 C11.23 469.23, 1.19 459.6, 0 439.12 M0 439.12 C0.49 352.71, -0.91 266.86, 0 32 M0 439.12 C-1.67 308.05, -2.27 177.39, 0 32 M0 32 C-1.45 10.96, 9.35 1.04, 32 0 M0 32 C0.39 10.84, 10.97 0.72, 32 0" stroke="#1e1e1e" stroke-width="2" fill="none"></path></g><g transform="translate(168.4415665357035 1049.736566189149) rotate(0 97 30.152420184292396)"><text x="97" y="0" font-family="Helvetica, Segoe UI Emoji" font-size="26.2194958124282px" fill="#1e1e1e" text-anchor="middle" style="white-space: pre;" direction="ltr" dominant-baseline="text-before-edge">AnTLR grammar</text><text x="97" y="30.152420184292428" font-family="Helvetica, Segoe UI Emoji" font-size="26.2194958124282px" fill="#1e1e1e" text-anchor="middle" style="white-space: pre;" direction="ltr" dominant-baseline="text-before-edge"></text></g><g transform="translate(119.71084545619829 1086.29356344316) rotate(0 144.125 9.200000000000045)"><text x="144.125" y="0" font-family="Helvetica, Segoe UI Emoji" font-size="16px" fill="#1e1e1e" text-anchor="middle" style="white-space: pre;" direction="ltr" dominant-baseline="text-before-edge">(Another Tool for Language Recognition)</text></g><g transform="translate(195.00153718420847 1118.9111961563522) rotate(0 65.68333435058594 9.599999999999909)"><text x="65.68333435058594" y="0" font-family="Cascadia, Segoe UI Emoji" font-size="16px" fill="#1e1e1e" text-anchor="middle" style="white-space: pre;" direction="ltr" dominant-baseline="text-before-edge">Expressions.g4</text></g><g transform="translate(20.93061994975801 1162.4013731072755) rotate(0 248.65834045410156 124.79999999999995)"><text x="0" y="0" font-family="Cascadia, Segoe UI Emoji" font-size="16px" fill="#1e1e1e" text-anchor="start" style="white-space: pre;" direction="ltr" dominant-baseline="text-before-edge">multExprR:</text><text x="0" y="19.2" font-family="Cascadia, Segoe UI Emoji" font-size="16px" fill="#1e1e1e" text-anchor="start" style="white-space: pre;" direction="ltr" dominant-baseline="text-before-edge">	unaryExprR</text><text x="0" y="38.4" font-family="Cascadia, Segoe UI Emoji" font-size="16px" fill="#1e1e1e" text-anchor="start" style="white-space: pre;" direction="ltr" dominant-baseline="text-before-edge">	| left=multExprR op=multDivOp right=unaryExpr</text><text x="0" y="57.599999999999994" font-family="Cascadia, Segoe UI Emoji" font-size="16px" fill="#1e1e1e" text-anchor="start" style="white-space: pre;" direction="ltr" dominant-baseline="text-before-edge">	;</text><text x="0" y="76.8" font-family="Cascadia, Segoe UI Emoji" font-size="16px" fill="#1e1e1e" text-anchor="start" style="white-space: pre;" direction="ltr" dominant-baseline="text-before-edge">unaryExpr:</text><text x="0" y="96" font-family="Cascadia, Segoe UI Emoji" font-size="16px" fill="#1e1e1e" text-anchor="start" style="white-space: pre;" direction="ltr" dominant-baseline="text-before-edge">	op=plusMinusOp termExpr</text><text x="0" y="115.19999999999999" font-family="Cascadia, Segoe UI Emoji" font-size="16px" fill="#1e1e1e" text-anchor="start" style="white-space: pre;" direction="ltr" dominant-baseline="text-before-edge">	| termExpr</text><text x="0" y="134.4" font-family="Cascadia, Segoe UI Emoji" font-size="16px" fill="#1e1e1e" text-anchor="start" style="white-space: pre;" direction="ltr" dominant-baseline="text-before-edge">	;</text><text x="0" y="153.6" font-family="Cascadia, Segoe UI Emoji" font-size="16px" fill="#1e1e1e" text-anchor="start" style="white-space: pre;" direction="ltr" dominant-baseline="text-before-edge">unaryExprR: termExpr;</text><text x="0" y="172.79999999999998" font-family="Cascadia, Segoe UI Emoji" font-size="16px" fill="#1e1e1e" text-anchor="start" style="white-space: pre;" direction="ltr" dominant-baseline="text-before-edge">termExpr:</text><text x="0" y="192" font-family="Cascadia, Segoe UI Emoji" font-size="16px" fill="#1e1e1e" text-anchor="start" style="white-space: pre;" direction="ltr" dominant-baseline="text-before-edge">	atom</text><text x="0" y="211.2" font-family="Cascadia, Segoe UI Emoji" font-size="16px" fill="#1e1e1e" text-anchor="start" style="white-space: pre;" direction="ltr" dominant-baseline="text-before-edge">	| LPAR expr RPAR</text><text x="0" y="230.39999999999998" font-family="Cascadia, Segoe UI Emoji" font-size="16px" fill="#1e1e1e" text-anchor="start" style="white-space: pre;" direction="ltr" dominant-baseline="text-before-edge">	;</text></g><g transform="translate(25.7271266498949 1442.9130144407286) rotate(0 122.01667022705078 10)"><text x="0" y="0" font-family="Virgil, Segoe UI Emoji" font-size="16px" fill="#1e1e1e" text-anchor="start" style="white-space: pre;" direction="ltr" dominant-baseline="text-before-edge">Adapted from existing grammar</text></g><g stroke-linecap="round"><g transform="translate(278.10388319690196 1002.8612174037676) rotate(0 -1.7350976612901832 -211.6732175083182)"><path d="M0.7 0.92 C-0.04 -69.62, -3.45 -351.79, -4.04 -422.6 M-0.4 0.36 C-1.37 -70.58, -4.81 -353.79, -5.28 -424.33" stroke="#1e1e1e" stroke-width="2" fill="none"></path></g><g transform="translate(278.10388319690196 1002.8612174037676) rotate(0 -1.7350976612901832 -211.6732175083182)"><path d="M3.5 -400.92 C1.99 -409.59, -1.21 -415.33, -5.28 -424.33 M3.5 -400.92 C1.65 -407.49, -1.31 -413.47, -5.28 -424.33" stroke="#1e1e1e" stroke-width="2" fill="none"></path></g><g transform="translate(278.10388319690196 1002.8612174037676) rotate(0 -1.7350976612901832 -211.6732175083182)"><path d="M-13.6 -400.75 C-9.44 -409.57, -6.96 -415.37, -5.28 -424.33 M-13.6 -400.75 C-11.12 -407.23, -9.75 -413.25, -5.28 -424.33" stroke="#1e1e1e" stroke-width="2" fill="none"></path></g></g><mask></mask><g stroke-linecap="round" transform="translate(1289.8064638600101 409.97656387012876) rotate(0 180.63052684739864 90.24519962818908)"><path d="M32 0 C147.28 -0.38, 263.41 0.01, 329.26 0 M32 0 C91.36 0.5, 151.37 0.84, 329.26 0 M329.26 0 C352.01 -0.78, 359.43 11.91, 361.26 32 M329.26 0 C349.76 -1.15, 360.08 8.73, 361.26 32 M361.26 32 C358.88 60.23, 358.91 92.43, 361.26 148.49 M361.26 32 C360.64 68.35, 360.97 102.37, 361.26 148.49 M361.26 148.49 C361.93 171.47, 349.8 178.53, 329.26 180.49 M361.26 148.49 C360.91 171.04, 349.76 181.41, 329.26 180.49 M329.26 180.49 C264 179.69, 196.15 179.63, 32 180.49 M329.26 180.49 C218.12 179.16, 107.47 180.45, 32 180.49 M32 180.49 C12 181.24, 0.69 167.95, 0 148.49 M32 180.49 C12.48 182.17, 1.45 169.64, 0 148.49 M0 148.49 C1.55 113.11, 1.47 76.53, 0 32 M0 148.49 C-0.64 120.95, -0.39 92.53, 0 32 M0 32 C-0.97 12.62, 11.25 -1.25, 32 0 M0 32 C-1.21 10.08, 11.56 -1.14, 32 0" stroke="#1e1e1e" stroke-width="2" fill="none"></path></g><g transform="translate(1345.6133368268268 433.7914263205553) rotate(0 116.69166564941406 16.09999999999991)"><text x="0" y="0" font-family="Helvetica, Segoe UI Emoji" font-size="28px" fill="#1e1e1e" text-anchor="start" style="white-space: pre;" direction="ltr" dominant-baseline="text-before-edge">Expression parser </text></g><g transform="translate(1315.770340438334 504.5213917707788) rotate(0 143.60833740234375 25)"><text x="0" y="0" font-family="Virgil, Segoe UI Emoji" font-size="20px" fill="#1e1e1e" text-anchor="start" style="white-space: pre;" direction="ltr" dominant-baseline="text-before-edge">includes lexer</text><text x="0" y="25" font-family="Virgil, Segoe UI Emoji" font-size="20px" fill="#1e1e1e" text-anchor="start" style="white-space: pre;" direction="ltr" dominant-baseline="text-before-edge">requires Python antlr runtime</text></g><g stroke-linecap="round" transform="translate(120.43295522828407 214.55249493733527) rotate(0 169.81432763497992 81.12149409314338)"><path d="M32 0 C101.89 -1.55, 171.17 -1.22, 307.63 0 M32 0 C139.77 0.81, 246.76 1.17, 307.63 0 M307.63 0 C329.27 0, 339.12 8.79, 339.63 32 M307.63 0 C329.02 -1.26, 340.13 11.24, 339.63 32 M339.63 32 C338.7 66.09, 338.37 99.94, 339.63 130.24 M339.63 32 C338.77 55.75, 338.99 79.86, 339.63 130.24 M339.63 130.24 C338.29 151.7, 330.54 161.58, 307.63 162.24 M339.63 130.24 C341.14 150.19, 328.2 162.84, 307.63 162.24 M307.63 162.24 C233.14 161.64, 160.82 162.7, 32 162.24 M307.63 162.24 C237.4 162.79, 167.45 163.4, 32 162.24 M32 162.24 C10.86 163.64, -1.35 150.98, 0 130.24 M32 162.24 C10.72 162.46, -0.48 150.34, 0 130.24 M0 130.24 C0.46 106.63, -2.21 83.23, 0 32 M0 130.24 C-0.76 100.8, 0.38 69.92, 0 32 M0 32 C-0.93 12.32, 12.08 -0.53, 32 0 M0 32 C2.01 12.2, 10.36 0.9, 32 0" stroke="#1e1e1e" stroke-width="2" fill="none"></path></g><g transform="translate(151.79993294430028 234.20125671223286) rotate(0 136.14166259765625 16.09999999999991)"><text x="0" y="0" font-family="Helvetica, Segoe UI Emoji" font-size="28px" fill="#1e1e1e" text-anchor="start" style="white-space: pre;" direction="ltr" dominant-baseline="text-before-edge">Antlr parser generator</text></g><g transform="translate(151.79993294429983 287.7476734831512) rotate(0 110.31666564941406 25)"><text x="0" y="0" font-family="Virgil, Segoe UI Emoji" font-size="20px" fill="#1e1e1e" text-anchor="start" style="white-space: pre;" direction="ltr" dominant-baseline="text-before-edge">runs on, Java.</text><text x="0" y="25" font-family="Virgil, Segoe UI Emoji" font-size="20px" fill="#1e1e1e" text-anchor="start" style="white-space: pre;" direction="ltr" dominant-baseline="text-before-edge">build process, run once</text></g><g stroke-linecap="round"><g transform="translate(373.6783034633429 496.291164180559) rotate(0 449.122991339837 -17.055869079258173)"><path d="M-0.48 -0.04 C149.23 -5.51, 748.74 -27.74, 898.47 -33.58 M1.48 -1.11 C151.03 -6.87, 748.4 -29.9, 897.64 -35.43" stroke="#1e1e1e" stroke-width="2" fill="none"></path></g><g transform="translate(373.6783034633429 496.291164180559) rotate(0 449.122991339837 -17.055869079258173)"><path d="M874.49 -26 C881.83 -28.53, 890.14 -32.49, 897.64 -35.43 M874.49 -26 C878.85 -27.95, 885.17 -29.23, 897.64 -35.43" stroke="#1e1e1e" stroke-width="2" fill="none"></path></g><g transform="translate(373.6783034633429 496.291164180559) rotate(0 449.122991339837 -17.055869079258173)"><path d="M873.84 -43.08 C881.28 -40.19, 889.79 -38.72, 897.64 -35.43 M873.84 -43.08 C878.21 -41.31, 884.66 -38.88, 897.64 -35.43" stroke="#1e1e1e" stroke-width="2" fill="none"></path></g></g><mask></mask><g stroke-linecap="round"><g transform="translate(355.5799372374747 507.29404977600734) rotate(0 95.49352673522685 53.95898092812172)"><path d="M0.43 0.4 C32 18.64, 158.55 90.93, 190.11 108.79 M-0.8 -0.43 C31.08 17.53, 160.21 88.94, 192.36 107.13" stroke="#1e1e1e" stroke-width="2" fill="none"></path></g><g transform="translate(355.5799372374747 507.29404977600734) rotate(0 95.49352673522685 53.95898092812172)"><path d="M167.68 103.14 C177.23 103.02, 186.9 103.96, 192.36 107.13 M167.68 103.14 C175.09 104.43, 180.83 104.69, 192.36 107.13" stroke="#1e1e1e" stroke-width="2" fill="none"></path></g><g transform="translate(355.5799372374747 507.29404977600734) rotate(0 95.49352673522685 53.95898092812172)"><path d="M176.02 88.21 C182.49 93.5, 189.16 99.82, 192.36 107.13 M176.02 88.21 C181.28 93.5, 184.78 97.79, 192.36 107.13" stroke="#1e1e1e" stroke-width="2" fill="none"></path></g></g><mask></mask><g stroke-linecap="round"><g transform="translate(351.8314056548418 522.7887348357776) rotate(0 114.63143734356663 194.32779155186336)"><path d="M-1.13 -1.16 C37.06 63.64, 190 324.23, 228.59 389.36 M0.48 0.84 C39.11 65.25, 192.65 323.12, 230.94 387.6" stroke="#1e1e1e" stroke-width="2" fill="none"></path></g><g transform="translate(351.8314056548418 522.7887348357776) rotate(0 114.63143734356663 194.32779155186336)"><path d="M211.59 371.78 C214.64 374.85, 222.65 381.87, 230.94 387.6 M211.59 371.78 C218.29 378.04, 225.33 383.99, 230.94 387.6" stroke="#1e1e1e" stroke-width="2" fill="none"></path></g><g transform="translate(351.8314056548418 522.7887348357776) rotate(0 114.63143734356663 194.32779155186336)"><path d="M226.28 363.04 C225.64 368.19, 229.93 377.43, 230.94 387.6 M226.28 363.04 C227.39 372.58, 228.88 381.84, 230.94 387.6" stroke="#1e1e1e" stroke-width="2" fill="none"></path></g></g><mask></mask><g stroke-linecap="round" transform="translate(556.4787521093756 558.0725141526004) rotate(0 290.9809954281868 122.4810516035916)"><path d="M32 0 C234.06 1.22, 436.25 1.52, 549.96 0 M32 0 C148.21 -0.89, 264.88 -0.62, 549.96 0 M549.96 0 C569.3 0.6, 581.93 12.46, 581.96 32 M549.96 0 C571.1 -0.79, 579.7 10.44, 581.96 32 M581.96 32 C583.13 91.29, 585.44 152.98, 581.96 212.96 M581.96 32 C583.32 74.84, 582.63 116.4, 581.96 212.96 M581.96 212.96 C583.03 235.18, 571.54 246.68, 549.96 244.96 M581.96 212.96 C583.1 235.14, 572.03 243.59, 549.96 244.96 M549.96 244.96 C345.89 244.49, 141.73 244.93, 32 244.96 M549.96 244.96 C432.38 243.88, 315.01 243.28, 32 244.96 M32 244.96 C9.44 244.49, -1.11 235.23, 0 212.96 M32 244.96 C10.92 245.88, -2.05 235.42, 0 212.96 M0 212.96 C0.1 144.73, -1.43 75.96, 0 32 M0 212.96 C-1.39 174.87, -0.81 134.45, 0 32 M0 32 C0.3 12.04, 12.09 -1.89, 32 0 M0 32 C1.27 8.63, 8.58 -0.77, 32 0" stroke="#1e1e1e" stroke-width="2" fill="none"></path></g><g transform="translate(696.6593776441221 587.0556961004172) rotate(0 80.14167022705078 16.09999999999991)"><text x="0" y="0" font-family="Helvetica, Segoe UI Emoji" font-size="28px" fill="#1e1e1e" text-anchor="start" style="white-space: pre;" direction="ltr" dominant-baseline="text-before-edge">Listener stub</text></g><g transform="translate(583.3821044847311 646.2145031076507) rotate(0 104.05000305175781 12.5)"><text x="0" y="0" font-family="Virgil, Segoe UI Emoji" font-size="20px" fill="#1e1e1e" text-anchor="start" style="white-space: pre;" direction="ltr" dominant-baseline="text-before-edge">contains methods like</text></g><g transform="translate(577.7182408267611 681.2615487134372) rotate(0 193.3249969482422 12)"><text x="0" y="0" font-family="Cascadia, Segoe UI Emoji" font-size="20px" fill="#1e1e1e" text-anchor="start" style="white-space: pre;" direction="ltr" dominant-baseline="text-before-edge">unaryExprEnter(), unaryExprExit()</text></g><g transform="translate(577.7182408267611 718.0766624902399) rotate(0 247.53334045410156 12.5)"><text x="0" y="0" font-family="Virgil, Segoe UI Emoji" font-size="20px" fill="#1e1e1e" text-anchor="start" style="white-space: pre;" direction="ltr" dominant-baseline="text-before-edge">complementary approach to visitor, we dont use it</text></g><g transform="translate(577.7182408267611 753.4758103525496) rotate(0 214.88333129882812 12.5)"><text x="0" y="0" font-family="Virgil, Segoe UI Emoji" font-size="20px" fill="#1e1e1e" text-anchor="start" style="white-space: pre;" direction="ltr" dominant-baseline="text-before-edge">we use it for error handling - error listener</text></g><g stroke-linecap="round" transform="translate(582.094280341975 843.4850127936152) rotate(0 265.4936089673233 135.9327277912696)"><path d="M32 0 C173.36 0.56, 315.13 0.29, 498.99 0 M32 0 C156.48 -0.9, 280.86 -0.5, 498.99 0 M498.99 0 C518.62 1.28, 530.69 8.84, 530.99 32 M498.99 0 C520.17 -1.99, 530.68 10.36, 530.99 32 M530.99 32 C530.26 112.85, 529.78 196.06, 530.99 239.87 M530.99 32 C532.25 98.91, 532.16 164.57, 530.99 239.87 M530.99 239.87 C531.98 259.86, 520.88 271.34, 498.99 271.87 M530.99 239.87 C531.06 261.05, 521.84 272.11, 498.99 271.87 M498.99 271.87 C369.07 269.57, 240.57 271, 32 271.87 M498.99 271.87 C361.08 270.9, 222.79 270.8, 32 271.87 M32 271.87 C9.97 271.01, 1.27 261.54, 0 239.87 M32 271.87 C11.03 271.72, 0.43 260.19, 0 239.87 M0 239.87 C0.44 191.55, 1.07 143.63, 0 32 M0 239.87 C0.13 171.76, 0.01 102.05, 0 32 M0 32 C-0.07 8.78, 11.52 1.93, 32 0 M0 32 C1.95 10.11, 12.73 -0.02, 32 0" stroke="#1e1e1e" stroke-width="2" fill="none"></path></g><g transform="translate(722.2749058767215 857.6446719385385) rotate(0 68.99166870117188 16.09999999999991)"><text x="0" y="0" font-family="Helvetica, Segoe UI Emoji" font-size="28px" fill="#1e1e1e" text-anchor="start" style="white-space: pre;" direction="ltr" dominant-baseline="text-before-edge">Visitor stub</text></g><g transform="translate(602.6492777655465 898.9513766892501) rotate(0 104.05000305175781 12.5)"><text x="0" y="0" font-family="Virgil, Segoe UI Emoji" font-size="20px" fill="#1e1e1e" text-anchor="start" style="white-space: pre;" direction="ltr" dominant-baseline="text-before-edge">contains methods like</text></g><g transform="translate(602.5801364820834 937.682456380544) rotate(0 93.73332977294922 12)"><text x="0" y="0" font-family="Cascadia, Segoe UI Emoji" font-size="20px" fill="#1e1e1e" text-anchor="start" style="white-space: pre;" direction="ltr" dominant-baseline="text-before-edge">visitUnaryExpr()</text></g><g transform="translate(593.4220076579138 978.001774670392) rotate(0 198.8249969482422 12.5)"><text x="0" y="0" font-family="Virgil, Segoe UI Emoji" font-size="20px" fill="#1e1e1e" text-anchor="start" style="white-space: pre;" direction="ltr" dominant-baseline="text-before-edge">these methods return a resulting object</text></g><g transform="translate(600.5018372303759 1014.8168884471943) rotate(0 219.0749969482422 25)"><text x="0" y="0" font-family="Virgil, Segoe UI Emoji" font-size="20px" fill="#1e1e1e" text-anchor="start" style="white-space: pre;" direction="ltr" dominant-baseline="text-before-edge">It is like walking an abstract syntax tree</text><text x="0" y="25" font-family="Virgil, Segoe UI Emoji" font-size="20px" fill="#1e1e1e" text-anchor="start" style="white-space: pre;" direction="ltr" dominant-baseline="text-before-edge">but while it is being constructed (not after)</text></g><g stroke-linecap="round" transform="translate(752.0937281623985 158.2977016345758) rotate(0 164.294386122089 127.16571129223848)"><path d="M162.35 0.56 C178.09 -1.77, 195.74 1.54, 211.65 5.38 C227.57 9.22, 243.91 16.1, 257.85 23.58 C271.79 31.06, 285.02 39.92, 295.29 50.24 C305.56 60.57, 314.06 73.14, 319.48 85.54 C324.9 97.93, 327.36 111.27, 327.79 124.59 C328.22 137.92, 326.85 152.72, 322.07 165.48 C317.29 178.25, 308.97 190.5, 299.12 201.19 C289.26 211.88, 276.63 221.9, 262.95 229.65 C249.26 237.39, 233.14 243.47, 217 247.68 C200.87 251.89, 182.88 254.59, 166.15 254.91 C149.42 255.22, 132.66 253.35, 116.62 249.56 C100.58 245.77, 83.9 239.91, 69.91 232.16 C55.93 224.42, 42.9 213.78, 32.69 203.09 C22.48 192.41, 14.01 180.33, 8.68 168.06 C3.35 155.78, 1.02 142.52, 0.72 129.44 C0.42 116.36, 1.88 102.15, 6.9 89.59 C11.92 77.03, 20.97 64.86, 30.85 54.09 C40.73 43.32, 52.81 32.98, 66.18 24.97 C79.55 16.95, 92.9 10.1, 111.06 6.01 C129.23 1.92, 161.94 0.89, 175.17 0.41 C188.39 -0.06, 190.39 1.02, 190.41 3.15 M232.24 12.54 C247.6 15.74, 261.64 24.71, 274.45 33.64 C287.25 42.57, 300.54 54.57, 309.07 66.12 C317.6 77.67, 322.37 90.31, 325.62 102.92 C328.88 115.54, 330.69 128.91, 328.59 141.81 C326.5 154.7, 320.31 168.33, 313.07 180.29 C305.84 192.25, 296.8 203.87, 285.2 213.56 C273.59 223.26, 258.34 232.17, 243.45 238.45 C228.55 244.73, 212.42 248.56, 195.84 251.25 C179.25 253.93, 160.43 255.94, 143.94 254.57 C127.44 253.19, 112.15 248.48, 96.87 243.01 C81.59 237.53, 64.7 230.74, 52.25 221.73 C39.79 212.71, 30.49 200.68, 22.13 188.92 C13.76 177.16, 5.71 164.03, 2.06 151.15 C-1.6 138.27, -2.06 124.58, 0.19 111.63 C2.44 98.67, 8.34 85.42, 15.56 73.41 C22.78 61.4, 32.07 49.07, 43.51 39.57 C54.96 30.07, 69.24 22.72, 84.24 16.42 C99.25 10.11, 117.15 4.45, 133.54 1.72 C149.93 -1, 166.02 -1.52, 182.58 0.06 C199.13 1.64, 224.79 8.89, 232.86 11.21 C240.93 13.53, 232.17 11.86, 230.98 13.97" stroke="#1e1e1e" stroke-width="2" fill="none"></path></g><g transform="translate(831.9203790465774 212.38650313032485) rotate(0 78.55833435058594 18.69198763004306)"><text x="0" y="0" font-family="Helvetica, Segoe UI Emoji" font-size="32.507804573988096px" fill="#1e1e1e" text-anchor="start" style="white-space: pre;" direction="ltr" dominant-baseline="text-before-edge">expression</text></g><g transform="translate(796.648137958219 283.56057740640153) rotate(0 116.05000305175781 10.835934857996108)"><text x="0" y="0" font-family="Cascadia, Segoe UI Emoji" font-size="18.059891429993385px" fill="#1e1e1e" text-anchor="start" style="white-space: pre;" direction="ltr" dominant-baseline="text-before-edge">inInFile(ISIN, 'file')</text></g><g stroke-linecap="round"><g transform="translate(1077.5296031458586 361.71850828364813) rotate(0 93.87926835179405 32.70291762580587)"><path d="M-0.93 0.16 C30.28 10.83, 156.86 53.55, 188.32 64.41" stroke="#1e1e1e" stroke-width="4.5" fill="none" stroke-dasharray="8 12"></path></g><g transform="translate(1077.5296031458586 361.71850828364813) rotate(0 93.87926835179405 32.70291762580587)"><path d="M163.32 64.93 C173.28 65.85, 181.03 64.79, 188.32 64.41" stroke="#1e1e1e" stroke-width="4.5" fill="none"></path></g><g transform="translate(1077.5296031458586 361.71850828364813) rotate(0 93.87926835179405 32.70291762580587)"><path d="M168.84 48.74 C176.72 55.89, 182.33 61.1, 188.32 64.41" stroke="#1e1e1e" stroke-width="4.5" fill="none"></path></g></g><mask></mask><g mask="url(#mask-WDZHkV4P7dbg-v3H1QjhQ)" stroke-linecap="round"><g transform="translate(1522.488635119935 606.8876292073342) rotate(0 41.49695626008679 140.158784434444)"><path d="M0.47 0.31 C14.4 18.45, 73.4 61.11, 84 107.74 C94.59 154.36, 67.35 251.27, 64.04 280.05" stroke="#1e1e1e" stroke-width="4.5" fill="none" stroke-dasharray="8 12"></path></g><g transform="translate(1522.488635119935 606.8876292073342) rotate(0 41.49695626008679 140.158784434444)"><path d="M60.01 255.38 C61.66 265.35, 63.87 270.9, 64.04 280.05" stroke="#1e1e1e" stroke-width="4.5" fill="none"></path></g><g transform="translate(1522.488635119935 606.8876292073342) rotate(0 41.49695626008679 140.158784434444)"><path d="M76.81 258.56 C72.83 267.53, 69.38 272, 64.04 280.05" stroke="#1e1e1e" stroke-width="4.5" fill="none"></path></g></g><mask id="mask-WDZHkV4P7dbg-v3H1QjhQ"><rect x="0" y="0" fill="#fff" width="1705.4825476401086" height="987.2051980762221"></rect><rect x="1523.8325461142294" y="701.3083174032854" fill="#000" width="163.3000030517578" height="25" opacity="1"></rect></mask><g transform="translate(1523.83254611423 701.3083174032859) rotate(0 42.108626332340464 45.761195981322544)"><text x="81.6500015258789" y="0" font-family="Virgil, Segoe UI Emoji" font-size="20px" fill="#1e1e1e" text-anchor="middle" style="white-space: pre;" direction="ltr" dominant-baseline="text-before-edge">calls methods on</text></g><g stroke-linecap="round" transform="translate(190.7331081286045 415.90134910185) rotate(0 84.24997191229727 75.75417642534308)"><path d="M106.25 19 C117.08 30.33, 129.45 38.01, 147.25 57 M106.25 19 C117.59 29.07, 128.3 40.77, 147.25 57 M147.25 57 C166.82 74.31, 166.68 77.42, 147.25 95 M147.25 57 C169.45 77.01, 167.13 77.31, 147.25 95 M147.25 95 C135.22 105.1, 122.65 116.66, 106.25 132.51 M147.25 95 C134.97 107.73, 121.38 117.81, 106.25 132.51 M106.25 132.51 C83.79 151.2, 83.96 149.68, 63.75 132.51 M106.25 132.51 C86.24 150.38, 83.19 152.44, 63.75 132.51 M63.75 132.51 C50.16 120.58, 37.72 109.65, 21.25 95 M63.75 132.51 C47.64 119.73, 33.38 105.3, 21.25 95 M21.25 95 C0.9 74.21, -1.9 74.25, 21.25 57 M21.25 95 C-1.96 76.43, -1.97 74.32, 21.25 57 M21.25 57 C29.57 49.4, 42.51 41.39, 63.75 19 M21.25 57 C31.09 48.98, 40.44 39.59, 63.75 19 M63.75 19 C84.43 -1.78, 83.66 1.56, 106.25 19 M63.75 19 C82.85 -2.1, 85.97 -1.56, 106.25 19" stroke="#1e1e1e" stroke-width="2" fill="none"></path></g><g transform="translate(230.67198549268483 475.055912766275) rotate(0 48.125 12.5)"><text x="0" y="0" font-family="Virgil, Segoe UI Emoji" font-size="20px" fill="#1e1e1e" text-anchor="start" style="white-space: pre;" direction="ltr" dominant-baseline="text-before-edge">generates</text></g><g stroke-linecap="round"><g transform="translate(1352.6878118913462 976.7392363147273) rotate(0 -106.79732223140945 -7.325586542815245)"><path d="M-0.33 0.64 C-36.06 -1.93, -177.98 -12.67, -213.68 -15.12 M1.69 -0.08 C-34.25 -2.51, -179.04 -11.16, -214.68 -13.83" stroke="#1e1e1e" stroke-width="2" fill="none"></path></g><g transform="translate(1352.6878118913462 976.7392363147273) rotate(0 -106.79732223140945 -7.325586542815245)"><path d="M-215.66 -15.22 L-200.78 -17.46 L-201.2 -7.46 L-215.64 -13.38" stroke="none" stroke-width="0" fill="#1e1e1e" fill-rule="evenodd"></path><path d="M-214.68 -13.83 C-208.95 -15.83, -205.39 -18.83, -200.7 -19.26 M-214.68 -13.83 C-209.82 -15.75, -205.55 -17.2, -200.7 -19.26 M-200.7 -19.26 C-202.12 -15.73, -201.49 -10.94, -201.54 -6.61 M-200.7 -19.26 C-201.48 -14.76, -201.09 -10.37, -201.54 -6.61 M-201.54 -6.61 C-205.39 -10.27, -210.74 -13.49, -214.68 -13.83 M-201.54 -6.61 C-205.1 -7.72, -207.64 -10.14, -214.68 -13.83 M-214.68 -13.83 C-214.68 -13.83, -214.68 -13.83, -214.68 -13.83 M-214.68 -13.83 C-214.68 -13.83, -214.68 -13.83, -214.68 -13.83" stroke="#1e1e1e" stroke-width="2" fill="none"></path></g></g><mask></mask><g stroke-linecap="round" transform="translate(1372.701316555206 910.9909704131346) rotate(0 193.78248639919047 90.68026607141633)"><path d="M32 0 C128.04 -0.05, 224.86 -0.11, 355.56 0 M32 0 C104.1 0.02, 177.72 -0.42, 355.56 0 M355.56 0 C375.01 -1.16, 386.97 9.34, 387.56 32 M355.56 0 C377.25 -1.2, 387.23 11.13, 387.56 32 M387.56 32 C387.95 68.08, 387.93 107.26, 387.56 149.36 M387.56 32 C386.57 62.49, 387.78 91.36, 387.56 149.36 M387.56 149.36 C386.38 169.96, 375.4 180.23, 355.56 181.36 M387.56 149.36 C387.63 169.18, 376.19 182.89, 355.56 181.36 M355.56 181.36 C248.28 181.24, 143.91 181.93, 32 181.36 M355.56 181.36 C287.19 183.74, 217.81 183.07, 32 181.36 M32 181.36 C11.34 182, -0.51 170.47, 0 149.36 M32 181.36 C9.66 183.51, -0.94 171.43, 0 149.36 M0 149.36 C-2.01 117.31, -1.07 82.23, 0 32 M0 149.36 C-1.03 122.66, 0.55 94.58, 0 32 M0 32 C-1.85 12.17, 10.07 1.26, 32 0 M0 32 C-0.79 9.99, 10.66 -2.21, 32 0" stroke="#1e1e1e" stroke-width="2" fill="none"></path></g><g transform="translate(1427.3017571756202 982.8606719677873) rotate(0 137.44166564941406 16.09999999999991)"><text x="0" y="0" font-family="Helvetica, Segoe UI Emoji" font-size="28px" fill="#1e1e1e" text-anchor="start" style="white-space: pre;" direction="ltr" dominant-baseline="text-before-edge">Visitor implementation</text></g><g mask="url(#mask-j-EZUeo7xKK1Y6sdASNxX)" stroke-linecap="round"><g transform="translate(1668.1220305499603 584.8242570398879) rotate(0 105.07277097442602 72.8237765427723)"><path d="M-0.48 0.47 C13.3 12.85, 47.81 50.18, 83.11 74.33 C118.41 98.48, 190.26 133.54, 211.34 145.36" stroke="#1e1e1e" stroke-width="4.5" fill="none" stroke-dasharray="8 12"></path></g><g transform="translate(1668.1220305499603 584.8242570398879) rotate(0 105.07277097442602 72.8237765427723)"><path d="M186.57 141.96 C195.69 143.81, 201.32 146.34, 211.34 145.36" stroke="#1e1e1e" stroke-width="4.5" fill="none"></path></g><g transform="translate(1668.1220305499603 584.8242570398879) rotate(0 105.07277097442602 72.8237765427723)"><path d="M194.55 126.84 C200.99 133.75, 203.93 141.36, 211.34 145.36" stroke="#1e1e1e" stroke-width="4.5" fill="none"></path></g></g><mask id="mask-j-EZUeo7xKK1Y6sdASNxX"><rect x="0" y="0" fill="#fff" width="1978.2675724988123" height="830.4718101254325"></rect><rect x="1660.3281421893735" y="635.3133810389268" fill="#000" width="181.0833282470703" height="50" opacity="1"></rect></mask><g transform="translate(1660.3281421893735 635.3133810389272) rotate(0 113.22130896371186 22.426879464755302)"><text x="90.54166412353516" y="0" font-family="Virgil, Segoe UI Emoji" font-size="20px" fill="#1e1e1e" text-anchor="middle" style="white-space: pre;" direction="ltr" dominant-baseline="text-before-edge">Returns top level </text><text x="90.54166412353516" y="25" font-family="Virgil, Segoe UI Emoji" font-size="20px" fill="#1e1e1e" text-anchor="middle" style="white-space: pre;" direction="ltr" dominant-baseline="text-before-edge">visitor return</text></g><g stroke-linecap="round" transform="translate(1294.6175787677514 1195.1004915546696) rotate(0 252.45286585637768 155.6340248290212)"><path d="M316.25 39 C344.81 53.36, 369.78 69.54, 441.66 117 M316.25 39 C355.12 62.69, 394.35 88.41, 441.66 117 M441.66 117 C505.41 157.37, 504.11 154.4, 441.66 195 M441.66 117 C504.16 155.08, 504.3 155.97, 441.66 195 M441.66 195 C391.26 227.32, 345.32 256.63, 316.25 272.27 M441.66 195 C412.87 211.71, 383 231.22, 316.25 272.27 M316.25 272.27 C251.8 311.21, 251.68 309.77, 189.75 272.27 M316.25 272.27 C253.56 312.15, 254.14 310.77, 189.75 272.27 M189.75 272.27 C146.37 245.09, 102.69 220.03, 63.25 195 M189.75 272.27 C152.26 249.42, 115.57 225.62, 63.25 195 M63.25 195 C0.79 157.61, -0.33 154.52, 63.25 117 M63.25 195 C-0.73 156.32, 1.89 157.85, 63.25 117 M63.25 117 C102.71 93.87, 144.31 66.55, 189.75 39 M63.25 117 C96.08 97.65, 128.62 76.04, 189.75 39 M189.75 39 C253.96 0.25, 251.46 -1.59, 316.25 39 M189.75 39 C253.38 1.74, 253.09 -0.66, 316.25 39" stroke="#1e1e1e" stroke-width="2" fill="none"></path></g><g transform="translate(1520.8298241587706 1226.7757010555101) rotate(0 25.700000762939453 17.5783946860347)"><text x="0" y="0" font-family="Cascadia, Segoe UI Emoji" font-size="29.297324476724206px" fill="#1e1e1e" text-anchor="start" style="white-space: pre;" direction="ltr" dominant-baseline="text-before-edge">ast</text></g><g transform="translate(1430.3449260023624 1285.2543687374605) rotate(0 124.3499984741211 10.17268210997372)"><text x="0" y="0" font-family="Virgil, Segoe UI Emoji" font-size="16.276291375957893px" fill="#1e1e1e" text-anchor="start" style="white-space: pre;" direction="ltr" dominant-baseline="text-before-edge">Python standard library module</text></g><g transform="translate(1373.6271568521327 1325.1794015871287) rotate(0 138.80833435058594 10.17268210997372)"><text x="0" y="0" font-family="Virgil, Segoe UI Emoji" font-size="16.27629137595789px" fill="#1e1e1e" text-anchor="start" style="white-space: pre;" direction="ltr" dominant-baseline="text-before-edge">Generate Python code from python</text></g><g transform="translate(1405.9140035001326 1368.8314960149723) rotate(0 141.2083282470703 10.17268210997372)"><text x="0" y="0" font-family="Virgil, Segoe UI Emoji" font-size="16.276291375957893px" fill="#1e1e1e" text-anchor="start" style="white-space: pre;" direction="ltr" dominant-baseline="text-before-edge">Classes like Call(), If(), Constant()</text></g><g mask="url(#mask-44TDNdUYvgUwjR76d3ZzX)" stroke-linecap="round"><g transform="translate(1551.9134400756536 1104.3777204645453) rotate(0 0.4175112176415041 37.97593212668016)"><path d="M-0.6 0.81 C-0.39 13.44, 1.36 63.37, 1.43 76.06 M1.29 0.19 C1.37 13.01, 0.65 65.17, 0.79 77.65" stroke="#1e1e1e" stroke-width="2" fill="none"></path></g><g transform="translate(1551.9134400756536 1104.3777204645453) rotate(0 0.4175112176415041 37.97593212668016)"><path d="M-7.69 54.13 C-3.58 62.63, -2.07 67.36, 0.79 77.65 M-7.69 54.13 C-3.84 62.72, -1.44 71.61, 0.79 77.65" stroke="#1e1e1e" stroke-width="2" fill="none"></path></g><g transform="translate(1551.9134400756536 1104.3777204645453) rotate(0 0.4175112176415041 37.97593212668016)"><path d="M9.41 54.18 C8.09 62.58, 4.17 67.3, 0.79 77.65 M9.41 54.18 C6.77 62.83, 2.66 71.7, 0.79 77.65" stroke="#1e1e1e" stroke-width="2" fill="none"></path></g></g><mask id="mask-44TDNdUYvgUwjR76d3ZzX"><rect x="0" y="0" fill="#fff" width="1652.7484625109366" height="1280.3295847179056"></rect><rect x="1458.8309512932951" y="1117.353652591226" fill="#000" width="187" height="50" opacity="1"></rect></mask><g transform="translate(1458.8309512932947 1117.353652591226) rotate(0 93.49819475263394 25.945739825023338)"><text x="93.5" y="0" font-family="Virgil, Segoe UI Emoji" font-size="20px" fill="#1e1e1e" text-anchor="middle" style="white-space: pre;" direction="ltr" dominant-baseline="text-before-edge">Uses and creates </text><text x="93.5" y="25" font-family="Virgil, Segoe UI Emoji" font-size="20px" fill="#1e1e1e" text-anchor="middle" style="white-space: pre;" direction="ltr" dominant-baseline="text-before-edge">nodes from</text></g><g stroke-linecap="round"><g transform="translate(274.71016535293643 387.4160979614044) rotate(0 0.4018767396714793 7.794787961199063)"><path d="M-0.48 -0.53 C-0.32 2.04, 0.44 12.44, 0.65 15.1 M0.28 0.39 C0.37 3.04, 0.11 12.95, 0.14 15.55" stroke="#1e1e1e" stroke-width="2" fill="none"></path></g></g><mask></mask><g stroke-linecap="round" transform="translate(1797.7052460779366 710.115735529535) rotate(0 196.44715888866062 128.15107630627426)"><path d="M200.67 0.73 C219.11 -0.97, 239.93 2.97, 258.22 6.89 C276.52 10.81, 294.74 17.04, 310.44 24.25 C326.13 31.46, 340.56 40.18, 352.39 50.15 C364.22 60.12, 374.84 72.19, 381.42 84.09 C388 95.98, 390.83 108.9, 391.86 121.5 C392.88 134.11, 392.14 147.66, 387.58 159.7 C383.03 171.74, 374.62 182.96, 364.52 193.74 C354.42 204.53, 341.43 216.02, 326.97 224.4 C312.51 232.78, 295.53 239.02, 277.78 244.03 C260.02 249.04, 239.56 252.68, 220.45 254.46 C201.33 256.25, 182.11 256.68, 163.1 254.76 C144.1 252.84, 123.68 248.81, 106.43 242.95 C89.18 237.09, 73.31 228.53, 59.6 219.62 C45.88 210.7, 33.41 200.27, 24.16 189.45 C14.91 178.63, 7.81 166.85, 4.1 154.7 C0.38 142.54, 0.11 129.25, 1.89 116.53 C3.66 103.82, 7.56 90.27, 14.73 78.41 C21.89 66.55, 32.31 54.88, 44.89 45.38 C57.46 35.89, 73.9 28.19, 90.19 21.44 C106.48 14.69, 122.42 8.44, 142.63 4.87 C162.83 1.3, 198.42 0.14, 211.42 0.02 C224.41 -0.1, 220.83 2.07, 220.59 4.14 M116.3 9.65 C131.94 2.67, 154.61 2.05, 173.97 0.64 C193.33 -0.77, 213.67 -1.32, 232.47 1.2 C251.28 3.73, 269.78 9.73, 286.8 15.79 C303.81 21.84, 320.72 29.01, 334.57 37.52 C348.43 46.03, 360.82 55.89, 369.95 66.86 C379.09 77.84, 385.82 91.1, 389.4 103.36 C392.98 115.61, 393.63 127.94, 391.42 140.41 C389.22 152.88, 383.43 166.17, 376.17 178.16 C368.9 190.15, 360.19 202.84, 347.86 212.33 C335.52 221.82, 318.58 228.67, 302.15 235.1 C285.72 241.52, 268.11 247.37, 249.29 250.88 C230.47 254.38, 208.83 256.44, 189.22 256.13 C169.61 255.81, 149.85 252.86, 131.62 249 C113.39 245.14, 95.29 240.25, 79.84 232.97 C64.38 225.68, 50.28 215.37, 38.89 205.3 C27.5 195.23, 17.95 184.62, 11.51 172.52 C5.07 160.43, 1.05 145.34, 0.23 132.74 C-0.58 120.14, 1.55 108.69, 6.62 96.95 C11.68 85.21, 20.54 73.39, 30.6 62.29 C40.66 51.19, 52.57 39, 66.98 30.34 C81.38 21.68, 108.45 13.05, 117.02 10.35 C125.59 7.65, 117.2 11.93, 118.39 14.15" stroke="#1e1e1e" stroke-width="2" fill="none"></path></g><g transform="translate(1852.9560095153727 763.8359858246063) rotate(0 134.61666870117165 16.09999999999991)"><text x="0" y="0" font-family="Helvetica, Segoe UI Emoji" font-size="28px" fill="#1e1e1e" text-anchor="start" style="white-space: pre;" direction="ltr" dominant-baseline="text-before-edge">Python module object</text></g><g transform="translate(1879.046647805272 831.3562361196764) rotate(0 105.64167022705055 12.5)"><text x="0" y="0" font-family="Virgil, Segoe UI Emoji" font-size="20px" fill="#1e1e1e" text-anchor="start" style="white-space: pre;" direction="ltr" dominant-baseline="text-before-edge">contains method run()</text></g><g stroke-linecap="round" transform="translate(588.2205517562822 1146.3507506343972) rotate(0 246.62048373138418 178.24144953203313)"><path d="M32 0 C130.34 0.43, 228.2 -0.32, 461.24 0 M461.24 0 C482.15 -0.08, 495.15 10.27, 493.24 32 M493.24 32 C493.03 137.98, 494.3 245.36, 493.24 324.48 M493.24 324.48 C493.07 344.76, 482.16 357.08, 461.24 356.48 M461.24 356.48 C315.64 356.34, 169.96 356.16, 32 356.48 M32 356.48 C9.26 354.82, 1.73 346.02, 0 324.48 M0 324.48 C2.05 260.88, 2.44 197.89, 0 32 M0 32 C0.2 12.29, 11.62 -0.79, 32 0" stroke="#1e1e1e" stroke-width="2.5" fill="none" stroke-dasharray="1.5 8"></path></g><g transform="translate(628.5399768894788 1162.4785206876763) rotate(0 98.83333587646484 12.5)"><text x="0" y="0" font-family="Virgil, Segoe UI Emoji" font-size="20px" fill="#1e1e1e" text-anchor="start" style="white-space: pre;" direction="ltr" dominant-baseline="text-before-edge">Bussiness level logic</text></g><g stroke-linecap="round" transform="translate(629.8839577272518 1213.549792523058) rotate(0 168.66959514053792 54.43122392981513)"><path d="M27.22 0 C123.88 2.38, 222.48 0.75, 310.12 0 M310.12 0 C329.81 -1.62, 337.67 7.99, 337.34 27.22 M337.34 27.22 C337.01 42.26, 336.95 57.53, 337.34 81.65 M337.34 81.65 C336.31 99.64, 328.32 109.74, 310.12 108.86 M310.12 108.86 C229.22 108.41, 149.69 109.64, 27.22 108.86 M27.22 108.86 C7.72 107.39, -1.21 99.68, 0 81.65 M0 81.65 C-1.01 67.94, 2.08 53.67, 0 27.22 M0 27.22 C-1.41 7.7, 11.04 1.73, 27.22 0" stroke="#1e1e1e" stroke-width="2.5" fill="none" stroke-dasharray="1.5 8"></path></g><g transform="translate(652.7316319693962 1248.4932943051622) rotate(0 140.875 25)"><text x="0" y="0" font-family="Virgil, Segoe UI Emoji" font-size="20px" fill="#1e1e1e" text-anchor="start" style="white-space: pre;" direction="ltr" dominant-baseline="text-before-edge">Date(time) formatting string</text><text x="0" y="25" font-family="Virgil, Segoe UI Emoji" font-size="20px" fill="#1e1e1e" text-anchor="start" style="white-space: pre;" direction="ltr" dominant-baseline="text-before-edge">parser (also antlr grammar)</text></g><g stroke-linecap="round" transform="translate(621.1480822817259 1352.6518092325837) rotate(0 215.0369340437137 54.43122392981513)"><path d="M27.22 0 C171.17 0.43, 315.01 2.3, 402.86 0 M402.86 0 C422.31 -1.88, 429.67 8.57, 430.07 27.22 M430.07 27.22 C429.56 50.49, 428.76 72.11, 430.07 81.65 M430.07 81.65 C431.98 100.41, 419.31 110.44, 402.86 108.86 M402.86 108.86 C267.22 107.13, 131.01 108.27, 27.22 108.86 M27.22 108.86 C7.95 106.95, -1.25 100.39, 0 81.65 M0 81.65 C-1.2 64.29, -0.21 50.62, 0 27.22 M0 27.22 C-1.36 9.85, 10.83 1.89, 27.22 0" stroke="#1e1e1e" stroke-width="2.5" fill="none" stroke-dasharray="1.5 8"></path></g><g transform="translate(647.3557086183039 1369.4515697047505) rotate(0 190.5500030517578 37.5)"><text x="0" y="0" font-family="Virgil, Segoe UI Emoji" font-size="20px" fill="#1e1e1e" text-anchor="start" style="white-space: pre;" direction="ltr" dominant-baseline="text-before-edge">Symbol management</text><text x="0" y="25" font-family="Virgil, Segoe UI Emoji" font-size="20px" fill="#1e1e1e" text-anchor="start" style="white-space: pre;" direction="ltr" dominant-baseline="text-before-edge">something like a symbol table stack</text><text x="0" y="50" font-family="Virgil, Segoe UI Emoji" font-size="20px" fill="#1e1e1e" text-anchor="start" style="white-space: pre;" direction="ltr" dominant-baseline="text-before-edge">validation, in future support for types</text></g><g transform="translate(629.9074611702115 1468.717053009023) rotate(0 16.133333206176758 12.5)"><text x="0" y="0" font-family="Virgil, Segoe UI Emoji" font-size="20px" fill="#1e1e1e" text-anchor="start" style="white-space: pre;" direction="ltr" dominant-baseline="text-before-edge">etc</text></g><g mask="url(#mask-ZydzsyIeBdq1AzNgKdU5m)" stroke-linecap="round"><g transform="translate(1357.966927578526 1027.0311885400429) rotate(0 -132.20479040975874 95.82187448996183)"><path d="M-0.11 0.71 C-43.93 32.93, -219.58 160.81, -263.67 192.46 M-1.62 0.04 C-45.48 32, -220.24 158.88, -264.23 190.76" stroke="#1e1e1e" stroke-width="2" fill="none"></path></g><g transform="translate(1357.966927578526 1027.0311885400429) rotate(0 -132.20479040975874 95.82187448996183)"><path d="M-250.23 170.05 C-252.55 176.24, -255.74 179.6, -264.23 190.76 M-250.23 170.05 C-253.53 174.73, -255.56 178.62, -264.23 190.76" stroke="#1e1e1e" stroke-width="2" fill="none"></path></g><g transform="translate(1357.966927578526 1027.0311885400429) rotate(0 -132.20479040975874 95.82187448996183)"><path d="M-240.19 183.89 C-244.82 186.75, -250.42 186.79, -264.23 190.76 M-240.19 183.89 C-245.7 185.74, -249.85 186.71, -264.23 190.76" stroke="#1e1e1e" stroke-width="2" fill="none"></path></g></g><mask id="mask-ZydzsyIeBdq1AzNgKdU5m"><rect x="0" y="0" fill="#fff" width="1722.3765083980436" height="1318.6749375199665"></rect><rect x="1202.287136787298" y="1110.3530630300047" fill="#000" width="46.95000076293945" height="25" opacity="1"></rect></mask><g transform="translate(1202.2871367872976 1110.3530630300047) rotate(0 23.5134888401858 12.928034807345966)"><text x="23.475000381469727" y="0" font-family="Virgil, Segoe UI Emoji" font-size="20px" fill="#1e1e1e" text-anchor="middle" style="white-space: pre;" direction="ltr" dominant-baseline="text-before-edge">Uses</text></g><g stroke-linecap="round"><g transform="translate(906.3957945920031 56.87480522134547) rotate(0 0 46.03775512810671)"><path d="M-0.35 -0.46 C-0.24 14.89, 0.34 77.71, 0.43 93.2 M1.67 -1.74 C1.68 13.81, 0.06 76.32, -0.29 91.67" stroke="#1e1e1e" stroke-width="2" fill="none"></path></g><g transform="translate(906.3957945920031 56.87480522134547) rotate(0 0 46.03775512810671)"><path d="M-8.27 67.98 C-6.56 75.4, -1.67 81.71, -0.29 91.67 M-8.27 67.98 C-5.8 76.04, -2.78 83.03, -0.29 91.67" stroke="#1e1e1e" stroke-width="2" fill="none"></path></g><g transform="translate(906.3957945920031 56.87480522134547) rotate(0 0 46.03775512810671)"><path d="M8.82 68.39 C5.72 75.64, 5.79 81.84, -0.29 91.67 M8.82 68.39 C5.55 76.45, 2.83 83.3, -0.29 91.67" stroke="#1e1e1e" stroke-width="2" fill="none"></path></g></g><mask></mask><g stroke-linecap="round"><g transform="translate(2197.127038365472 820.2644902546813) rotate(0 65.2899072725877 0)"><path d="M0.75 1.05 C22.48 0.98, 109.26 -0.71, 130.84 -0.75 M-0.32 0.55 C21.24 0.65, 108.44 0.68, 130.02 0.39" stroke="#1e1e1e" stroke-width="2" fill="none"></path></g><g transform="translate(2197.127038365472 820.2644902546813) rotate(0 65.2899072725877 0)"><path d="M106.58 9.07 C116.29 6.41, 121.23 2.39, 130.02 0.39 M106.58 9.07 C114.52 5.42, 124.5 2.21, 130.02 0.39" stroke="#1e1e1e" stroke-width="2" fill="none"></path></g><g transform="translate(2197.127038365472 820.2644902546813) rotate(0 65.2899072725877 0)"><path d="M106.49 -8.03 C116.18 -4.9, 121.15 -3.13, 130.02 0.39 M106.49 -8.03 C114.34 -5.43, 124.35 -2.4, 130.02 0.39" stroke="#1e1e1e" stroke-width="2" fill="none"></path></g></g><mask></mask><g stroke-linecap="round" transform="translate(886.3065923542838 10) rotate(0 22.600352517434203 22.600352517434203)"><path d="M28.3 0.88 C32.82 1.61, 37.56 5.26, 40.38 9.1 C43.19 12.94, 45.47 19.11, 45.2 23.93 C44.94 28.75, 42.12 34.58, 38.79 38.03 C35.45 41.47, 29.99 43.99, 25.18 44.59 C20.38 45.19, 13.99 44.28, 9.96 41.64 C5.92 38.99, 2.31 33.44, 0.96 28.72 C-0.38 24.01, 0.05 17.73, 1.89 13.34 C3.73 8.95, 7.49 4.42, 12.02 2.4 C16.54 0.38, 26.25 1.35, 29.04 1.23 C31.83 1.1, 28.87 1.35, 28.77 1.66 M17.74 0.08 C22.19 -1.28, 28.1 0.8, 32.37 2.89 C36.64 4.98, 41.3 8.23, 43.36 12.62 C45.43 17, 46.22 24.51, 44.76 29.2 C43.3 33.9, 38.73 38.19, 34.61 40.78 C30.5 43.37, 24.73 45.17, 20.07 44.74 C15.41 44.32, 10.03 41.58, 6.63 38.23 C3.23 34.89, -0.01 29.54, -0.34 24.67 C-0.66 19.81, 1.76 13.07, 4.66 9.04 C7.57 5, 14.98 1.7, 17.1 0.47 C19.22 -0.77, 17.37 1.19, 17.37 1.64" stroke="#1e1e1e" stroke-width="2" fill="none"></path></g><g stroke-linecap="round" transform="translate(2329.380953097123 795.1529874575317) rotate(0 31.807903543055545 26.78560298362595)"><path d="M20.55 2.41 C26.76 0.12, 37.51 -1.03, 43.87 0.97 C50.23 2.97, 55.48 9.16, 58.71 14.41 C61.93 19.66, 64.32 26.83, 63.22 32.49 C62.12 38.14, 57.48 44.95, 52.1 48.35 C46.73 51.75, 37.73 53.18, 30.96 52.87 C24.19 52.55, 16.55 50.14, 11.49 46.45 C6.44 42.76, 1.92 36.22, 0.61 30.74 C-0.7 25.25, -0.21 18.47, 3.61 13.54 C7.43 8.61, 19.82 3.29, 23.55 1.17 C27.28 -0.95, 25.75 0.29, 26 0.84 M26.73 0.25 C33.09 -1.14, 43.53 0.46, 49.59 3.68 C55.65 6.9, 61.29 14.31, 63.1 19.58 C64.91 24.85, 63.29 30.21, 60.45 35.3 C57.61 40.39, 51.63 47.39, 46.07 50.1 C40.52 52.82, 33.49 52.91, 27.14 51.58 C20.79 50.25, 12.35 46.22, 7.99 42.13 C3.63 38.04, 0.98 32.58, 0.98 27.02 C0.98 21.45, 3.91 13.13, 7.98 8.75 C12.05 4.36, 22.03 1.85, 25.39 0.71 C28.74 -0.44, 27.66 1.47, 28.11 1.87" stroke="none" stroke-width="0" fill="#1e1e1e"></path><path d="M38.8 1.43 C45.38 2.24, 52.85 6.58, 56.94 10.84 C61.03 15.1, 63.53 21.35, 63.31 27.01 C63.1 32.67, 59.94 40.47, 55.65 44.78 C51.37 49.08, 44.45 51.99, 37.61 52.84 C30.78 53.69, 20.68 52.87, 14.66 49.87 C8.65 46.86, 3.78 40.37, 1.53 34.81 C-0.72 29.25, -1.47 21.83, 1.18 16.51 C3.83 11.2, 10.63 5.65, 17.42 2.94 C24.21 0.22, 37.46 0.17, 41.92 0.24 C46.38 0.31, 44.6 2.78, 44.17 3.34 M30.33 1.07 C36.51 0.13, 44.96 0.79, 50.12 3.94 C55.27 7.1, 59.73 14.09, 61.27 19.99 C62.81 25.89, 62.13 34.3, 59.35 39.36 C56.58 44.42, 50.84 48.26, 44.62 50.35 C38.41 52.44, 28.75 53.5, 22.05 51.88 C15.36 50.26, 8.25 45.48, 4.45 40.63 C0.65 35.79, -1.88 28.23, -0.73 22.81 C0.41 17.4, 6.16 12.04, 11.33 8.14 C16.5 4.25, 27.1 0.5, 30.28 -0.55 C33.46 -1.6, 30.61 1.42, 30.4 1.85" stroke="#1e1e1e" stroke-width="2" fill="none"></path></g></svg>